<svg xmlns="http://www.w3.org/2000/svg" xmlns:xlink="http://www.w3.org/1999/xlink" viewBox="0 0 137.2 238.3"><defs><style>.cls-1{isolation:isolate;}.cls-18,.cls-2{fill:#5618b8;}.cls-3{fill:url(#Degradado_sin_nombre_13);}.cls-4{fill:#5fd9ff;}.cls-5{fill:url(#Degradado_sin_nombre_13-2);}.cls-6{fill:url(#Degradado_sin_nombre_13-3);}.cls-7{fill:#ccd3e2;}.cls-8{fill:#fff;}.cls-9{fill:#e8eff9;}.cls-10{fill:url(#Degradado_sin_nombre_13-4);}.cls-11{fill:url(#Degradado_sin_nombre_13-5);}.cls-12{fill:#caaeff;}.cls-13{fill:url(#Degradado_sin_nombre_13-6);}.cls-14{fill:url(#Degradado_sin_nombre_13-7);}.cls-15{fill:url(#Degradado_sin_nombre_13-8);}.cls-16{fill:url(#Degradado_sin_nombre_13-9);}.cls-17{fill:url(#Degradado_sin_nombre_13-10);}.cls-18{fill-rule:evenodd;}.cls-19{fill:url(#Degradado_sin_nombre_13-11);}.cls-20{fill:url(#Degradado_sin_nombre_13-12);}.cls-21{mix-blend-mode:hard-light;fill:url(#Degradado_sin_nombre_54);}</style><linearGradient id="Degradado_sin_nombre_13" x1="0.02" y1="192.03" x2="136.95" y2="192.03" gradientUnits="userSpaceOnUse"><stop offset="0" stop-color="#5618b8"/><stop offset="1" stop-color="#c7d7ff"/></linearGradient><linearGradient id="Degradado_sin_nombre_13-2" x1="0.15" y1="177.37" x2="137.08" y2="177.37" xlink:href="#Degradado_sin_nombre_13"/><linearGradient id="Degradado_sin_nombre_13-3" x1="0.23" y1="162.37" x2="137.16" y2="162.37" xlink:href="#Degradado_sin_nombre_13"/><linearGradient id="Degradado_sin_nombre_13-4" x1="29.22" y1="609.1" x2="58.17" y2="651.57" gradientTransform="translate(-274.2 -397) rotate(-31.8)" xlink:href="#Degradado_sin_nombre_13"/><linearGradient id="Degradado_sin_nombre_13-5" x1="29" y1="609.25" x2="57.95" y2="651.72" gradientTransform="translate(-274.2 -397) rotate(-31.8)" xlink:href="#Degradado_sin_nombre_13"/><linearGradient id="Degradado_sin_nombre_13-6" x1="38.3" y1="160.34" x2="94.35" y2="160.34" xlink:href="#Degradado_sin_nombre_13"/><linearGradient id="Degradado_sin_nombre_13-7" x1="32.57" y1="356.09" x2="63.11" y2="396.98" gradientTransform="translate(-156.1 -225.9) rotate(-25.8)" xlink:href="#Degradado_sin_nombre_13"/><linearGradient id="Degradado_sin_nombre_13-8" x1="31.26" y1="357.07" x2="61.8" y2="397.96" gradientTransform="translate(-156.1 -225.9) rotate(-25.8)" xlink:href="#Degradado_sin_nombre_13"/><linearGradient id="Degradado_sin_nombre_13-9" x1="-30.09" y1="-157.65" x2="10.33" y2="-157.27" gradientTransform="translate(46.3 207.6) rotate(22.5)" xlink:href="#Degradado_sin_nombre_13"/><linearGradient id="Degradado_sin_nombre_13-10" x1="-30.29" y1="-135.53" x2="10.12" y2="-135.15" gradientTransform="translate(46.3 207.6) rotate(22.5)" xlink:href="#Degradado_sin_nombre_13"/><linearGradient id="Degradado_sin_nombre_13-11" x1="60.83" y1="11.24" x2="78.36" y2="74.66" xlink:href="#Degradado_sin_nombre_13"/><linearGradient id="Degradado_sin_nombre_13-12" x1="75.51" y1="7.19" x2="93.04" y2="70.6" xlink:href="#Degradado_sin_nombre_13"/><linearGradient id="Degradado_sin_nombre_54" x1="71.44" y1="22.23" x2="62.59" y2="198.07" gradientUnits="userSpaceOnUse"><stop offset="0" stop-color="#4076bc" stop-opacity="0"/><stop offset="1" stop-color="#fff"/></linearGradient></defs><g class="cls-1"><g id="Layer_2" data-name="Layer 2"><g id="OBJECTS"><g class="cls-1"><path class="cls-2" d="M137,192.1v6.6a4.6,4.6,0,0,1-2.8,3.9V196C136,194.9,136.9,193.5,137,192.1Z"/><path class="cls-2" d="M0,198.6V192c0,1.5,1,2.9,2.9,4v6.6C1,201.5,0,200.1,0,198.6Z"/><polygon class="cls-2" points="134.1 196 134.1 202.6 75.6 236.7 75.6 230 134.1 196"/><polygon class="cls-2" points="61.8 230 61.8 236.7 2.9 202.6 2.9 196 61.8 230"/><path class="cls-2" d="M75.6,230v6.7a15.3,15.3,0,0,1-13.8,0V230A15.3,15.3,0,0,0,75.6,230Z"/><path class="cls-3" d="M134.1,188c3.8,2.2,3.8,5.8,0,8L75.6,230a15.3,15.3,0,0,1-13.8,0L2.9,196c-3.8-2.2-3.8-5.8-.1-8l58.6-34a15.3,15.3,0,0,1,13.8,0Z"/></g><g class="cls-1"><path class="cls-4" d="M130.7,186.3v6.1c0,1.3-.9,2.6-2.6,3.6v-6.1C129.8,188.9,130.7,187.6,130.7,186.3Z"/><path class="cls-4" d="M5.7,192.3v-6c0,1.3.9,2.6,2.6,3.6V196A4.6,4.6,0,0,1,5.7,192.3Z"/><polygon class="cls-4" points="128.1 189.9 128.1 196 74.7 227 74.7 221 128.1 189.9"/><polygon class="cls-4" points="62.1 221 62.1 227 8.3 196 8.3 189.9 62.1 221"/><path class="cls-4" d="M74.7,221v6a14,14,0,0,1-12.6,0v-6A14,14,0,0,0,74.7,221Z"/><path class="cls-4" d="M128.1,182.6c3.5,2.1,3.5,5.3,0,7.3L74.7,221a14,14,0,0,1-12.6,0L8.3,189.9c-3.4-2-3.4-5.2,0-7.2l53.4-31.1a14,14,0,0,1,12.6,0Z"/></g><g class="cls-1"><path class="cls-2" d="M137.1,177.4V184c0,1.5-1,2.9-2.9,4v-6.6C136.1,180.3,137.1,178.8,137.1,177.4Z"/><path class="cls-2" d="M.1,184v-6.7c0,1.5,1,3,2.9,4.1V188C1.1,186.9.1,185.4.1,184Z"/><polygon class="cls-2" points="134.3 181.4 134.2 188 75.7 222 75.7 215.4 134.3 181.4"/><polygon class="cls-2" points="61.9 215.4 61.9 222 3 188 3 181.4 61.9 215.4"/><path class="cls-2" d="M75.7,215.4V222a15.3,15.3,0,0,1-13.8,0v-6.6A15.3,15.3,0,0,0,75.7,215.4Z"/><path class="cls-5" d="M134.2,173.4c3.8,2.2,3.8,5.8.1,8l-58.6,34a15.3,15.3,0,0,1-13.8,0L3,181.4c-3.8-2.2-3.8-5.8,0-8l58.5-34a15.3,15.3,0,0,1,13.8,0Z"/></g><g class="cls-1"><path class="cls-4" d="M130.8,171.3v6.1c0,1.3-.9,2.6-2.6,3.6v-6.1C129.9,173.9,130.8,172.6,130.8,171.3Z"/><path class="cls-4" d="M5.8,177.3v-6c0,1.3.9,2.6,2.6,3.6V181A4.6,4.6,0,0,1,5.8,177.3Z"/><polygon class="cls-4" points="128.2 174.9 128.2 181 74.8 212 74.8 206 128.2 174.9"/><polygon class="cls-4" points="62.2 206 62.2 212 8.4 181 8.4 174.9 62.2 206"/><path class="cls-4" d="M74.8,206v6a14,14,0,0,1-12.6,0v-6A14,14,0,0,0,74.8,206Z"/><path class="cls-4" d="M128.2,167.6c3.4,2.1,3.5,5.3,0,7.3L74.8,206a14,14,0,0,1-12.6,0L8.4,174.9c-3.4-2-3.5-5.2,0-7.2l53.4-31.1a14,14,0,0,1,12.6,0Z"/></g><g class="cls-1"><path class="cls-2" d="M137.2,162.4V169c0,1.5-.9,2.9-2.8,4v-6.6C136.2,165.3,137.2,163.8,137.2,162.4Z"/><path class="cls-2" d="M.2,169v-6.7c0,1.5,1,3,2.9,4.1V173C1.2,171.9.2,170.4.2,169Z"/><polygon class="cls-2" points="134.3 166.4 134.3 173 75.8 207 75.8 200.4 134.3 166.4"/><polygon class="cls-2" points="62 200.4 62 207 3.1 173 3.1 166.4 62 200.4"/><path class="cls-2" d="M75.8,200.4V207A15.3,15.3,0,0,1,62,207v-6.6A15.3,15.3,0,0,0,75.8,200.4Z"/><path class="cls-6" d="M134.3,158.4c3.8,2.2,3.8,5.8,0,8l-58.5,34a15.3,15.3,0,0,1-13.8,0l-58.9-34c-3.8-2.2-3.8-5.8-.1-8l58.6-34a15.3,15.3,0,0,1,13.8,0Z"/></g><g class="cls-1"><path class="cls-7" d="M74.3,123.8v6.6a13.6,13.6,0,0,0-12.1,0v-6.6A13.3,13.3,0,0,1,74.3,123.8Z"/><polygon class="cls-7" points="123.6 152.3 123.6 158.9 74.3 130.4 74.3 123.8 123.6 152.3"/><path class="cls-7" d="M126.2,155.8v6.6c0-1.3-.8-2.5-2.5-3.5v-6.6C125.3,153.2,126.2,154.5,126.2,155.8Z"/><path class="cls-7" d="M10.8,162.4v-6.7a4.1,4.1,0,0,1,2.5-3.4v6.6A4.1,4.1,0,0,0,10.8,162.4Z"/><path class="cls-7" d="M128.6,155.8v6.6c0,1.6-1.1,3.2-3.2,4.5v-6.6C127.5,159,128.6,157.4,128.6,155.8Z"/><path class="cls-7" d="M8.4,162.4v-6.7c0,1.7,1.1,3.3,3.2,4.6v6.6C9.4,165.6,8.4,164,8.4,162.4Z"/><path class="cls-8" d="M125.4,151.3c4.2,2.4,4.3,6.5,0,9l-49,28.4c-4.2,2.5-11.2,2.5-15.5,0L11.6,160.3c-4.3-2.5-4.3-6.6,0-9l48.9-28.5a17.2,17.2,0,0,1,15.6,0ZM74.7,187.7l49-28.4c3.3-2,3.3-5.1-.1-7L74.3,123.8a13.3,13.3,0,0,0-12,0l-49,28.5c-3.3,1.9-3.3,5,0,7l49.3,28.4a13.6,13.6,0,0,0,12.1,0"/><polygon class="cls-7" points="62.3 123.8 62.2 130.4 13.3 158.9 13.3 152.3 62.3 123.8"/><polygon class="cls-7" points="125.4 160.3 125.4 166.9 76.4 195.3 76.4 188.7 125.4 160.3"/><polygon class="cls-7" points="60.9 188.7 60.9 195.3 11.6 166.9 11.6 160.3 60.9 188.7"/><path class="cls-7" d="M76.4,188.7v6.6a17,17,0,0,1-15.5,0v-6.6C65.2,191.2,72.2,191.2,76.4,188.7Z"/></g><g class="cls-1"><path class="cls-7" d="M110.9,160.2v1.3c0,1.5-.9,2.9-2.8,4v-1.3C110,163.1,110.9,161.7,110.9,160.2Z"/><path class="cls-7" d="M26,161.5v-1.3c0,1.4,1,2.9,2.9,4v1.3C27,164.4,26,162.9,26,161.5Z"/><polygon class="cls-7" points="108.1 164.2 108.1 165.5 75.5 184.4 75.5 183.1 108.1 164.2"/><polygon class="cls-7" points="61.7 183.1 61.7 184.5 28.9 165.5 28.9 164.2 61.7 183.1"/><path class="cls-7" d="M75.5,183.1v1.3a15.6,15.6,0,0,1-13.8.1v-1.4A15.3,15.3,0,0,0,75.5,183.1Z"/><path class="cls-8" d="M108.1,156.2c3.8,2.2,3.8,5.8,0,8L75.5,183.1a15.3,15.3,0,0,1-13.8,0L28.9,164.2c-3.8-2.2-3.8-5.8,0-8l32.6-18.9c3.7-2.2,9.9-2.2,13.7,0Z"/></g><g class="cls-1"><path class="cls-8" d="M92.8,133.5a22.3,22.3,0,0,0,6.7.8l-.9,1.6A26.1,26.1,0,0,1,92,135Z"/><path class="cls-8" d="M99.5,134.3c4.2-.1,7.2-1.7,8.5-4.2l-.8,1.6c-1.3,2.4-4.3,4-8.6,4.2Z"/><path class="cls-8" d="M76.1,121.8c3.3,5.4,10,9.9,16.7,11.7L92,135c-6.7-1.8-13.4-6.3-16.7-11.7-2.2-3.5-2.5-6.8-1.2-9.3l.8-1.5C73.6,114.9,73.9,118.2,76.1,121.8Z"/><path class="cls-9" d="M74.1,114l.8-1.5c1.3-2.5,4.2-4.1,8.5-4.2l-.8,1.5C78.3,110,75.4,111.6,74.1,114Z"/><path class="cls-10" d="M71.4,111.4l.8-1.5c1.7-3.2,5.6-5.4,11.3-5.5l-.8,1.5C77,106.1,73.1,108.2,71.4,111.4Z"/><path class="cls-9" d="M82.6,109.8c8.5-.2,19,5.4,23.4,12.6s1.1,13.2-7.4,13.5-18.9-5.4-23.3-12.6S74.1,110.1,82.6,109.8Z"/><path class="cls-9" d="M108,130.1l-.8,1.6c1.3-2.5,1-5.8-1.2-9.3-4.4-7.2-14.9-12.8-23.4-12.6l.8-1.5c8.5-.3,19,5.4,23.4,12.5C109,124.4,109.3,127.7,108,130.1Z"/><path class="cls-11" d="M116,133.3l-.8,1.5c1.7-3.2,1.3-7.6-1.6-12.3-5.8-9.5-19.7-17-30.9-16.6l.8-1.5c11.2-.4,25.1,7,30.9,16.6C117.4,125.7,117.7,130,116,133.3Z"/><path class="cls-8" d="M82.7,105.9c11.2-.4,25.1,7.1,30.9,16.6s1.5,17.5-9.7,17.8-25.1-7-30.9-16.5S71.5,106.2,82.7,105.9Zm15.9,30c8.5-.3,11.8-6.3,7.4-13.5s-14.9-12.8-23.4-12.6-11.8,6.3-7.3,13.5,14.9,12.8,23.3,12.6"/></g><g class="cls-1"><path class="cls-12" d="M74.4,114.1l.3-.5c-1.5,2.7-1.1,6.4,1.3,10.4,5,8,16.7,14.3,26.2,14l-.3.5c-9.5.3-21.2-6-26.1-14C73.3,120.5,73,116.8,74.4,114.1Z"/><path class="cls-12" d="M111.7,133.3l-.2.5c-1.5,2.8-4.8,4.6-9.6,4.7l.3-.5C106.9,137.8,110.2,136.1,111.7,133.3Z"/><path class="cls-12" d="M73.2,113.4l.2-.5c1.6-2.9,5.1-4.9,10.2-5l-.2.5C78.3,108.6,74.8,110.5,73.2,113.4Z"/><path class="cls-12" d="M113,134l-.3.5c1.5-3,1.2-6.9-1.4-11.1-5.3-8.6-17.8-15.3-27.9-15l.2-.5c10.1-.3,22.7,6.4,27.9,15C114.2,127.1,114.5,131,113,134Z"/><path class="cls-2" d="M83.4,108.4c10.1-.3,22.6,6.4,27.9,15s1.3,15.8-8.8,16.1-22.6-6.4-27.9-15S73.3,108.7,83.4,108.4Zm18.5,30.1c9.5-.3,13.2-7.1,8.2-15.1s-16.7-14.3-26.1-14-13.2,7-8.2,15.1,16.6,14.3,26.1,14"/></g><g class="cls-1"><polygon class="cls-12" points="82.4 123.9 82.7 123.4 85.8 122.6 85.5 123.1 82.4 123.9"/><polygon class="cls-12" points="93.2 123.6 93.5 123.1 95.5 128.5 95.2 129 93.2 123.6"/><polygon class="cls-12" points="105.9 128.7 106.2 128.2 107.7 132.4 107.5 132.9 105.9 128.7"/><polygon class="cls-12" points="95.2 129 95.5 128.5 106.2 128.2 105.9 128.7 95.2 129"/><polygon class="cls-12" points="95.5 120.4 95.7 119.9 97.1 122.1 96.8 122.6 95.5 120.4"/><polygon class="cls-12" points="92.4 121.2 92.7 120.7 95.7 119.9 95.5 120.4 92.4 121.2"/><polygon class="cls-2" points="89.2 112.6 92.4 121.2 95.5 120.4 96.8 122.6 93.2 123.6 95.2 129 105.9 128.7 107.5 132.9 89.3 133.5 86.4 125.4 83.8 126.1 82.4 123.9 85.5 123.1 81.8 112.9 89.2 112.6"/><polygon class="cls-12" points="89.2 112.6 89.5 112.1 92.7 120.7 92.4 121.2 89.2 112.6"/><polygon class="cls-12" points="81.8 112.9 82 112.3 89.5 112.1 89.2 112.6 81.8 112.9"/></g><g class="cls-1"><path class="cls-8" d="M86.7,150.3v-2.1h0Z"/><path class="cls-8" d="M86.7,150.3v-2a6,6,0,0,1,.4,2.2v1.9A5.2,5.2,0,0,0,86.7,150.3Z"/><path class="cls-8" d="M50.9,143.8c-4.1,2.3-6.2,5.5-6.2,8.6v-2c0-3.1,2.1-6.2,6.2-8.6,8.2-4.8,21.6-4.8,29.9,0,3.1,1.8,5.1,4,5.9,6.4v1.9c-.8-2.3-2.8-4.5-5.9-6.3C72.5,139,59.1,139,50.9,143.8Z"/><path class="cls-8" d="M87.1,152.5h0v-1.9h0Z"/><path class="cls-9" d="M87.1,150.6v1.9c0,3.1-2.1,6.2-6.2,8.6-8.2,4.8-21.6,4.8-29.9,0-4.2-2.4-6.3-5.6-6.3-8.7v-2c0,3.2,2.1,6.4,6.3,8.8,8.3,4.8,21.7,4.8,29.9,0C85,156.8,87.1,153.7,87.1,150.6Z"/><path class="cls-9" d="M80.8,141.8c8.3,4.8,8.4,12.6.1,17.4s-21.6,4.8-29.9,0-8.4-12.6-.1-17.4S72.5,137,80.8,141.8Z"/><path class="cls-13" d="M94.3,151.4v1.9c0,4.1-2.7,8.3-8.1,11.4-10.9,6.3-28.6,6.4-39.6,0-5.6-3.2-8.3-7.4-8.3-11.5v-2c0,4.2,2.8,8.4,8.3,11.6,11,6.3,28.7,6.3,39.6,0C91.6,159.6,94.3,155.5,94.3,151.4Z"/><path class="cls-8" d="M86.1,139.8c11,6.4,11,16.6.1,23s-28.6,6.3-39.6,0-11.1-16.6-.2-23S75.1,133.5,86.1,139.8ZM51,159.2c8.3,4.8,21.7,4.8,29.9,0s8.2-12.6-.1-17.4-21.7-4.8-29.9,0-8.2,12.6.1,17.4"/></g><g class="cls-1"><path class="cls-12" d="M89.6,151.2v.7c0-3.5-2.3-7.1-7-9.8-9.3-5.3-24.3-5.3-33.5,0-4.6,2.7-6.9,6.2-6.9,9.7v-.7c0-3.5,2.3-7,6.9-9.6,9.2-5.4,24.2-5.4,33.5,0C87.3,144.2,89.6,147.7,89.6,151.2Z"/><path class="cls-12" d="M91.2,151.2v.7c0,3.7-2.5,7.4-7.4,10.3-9.8,5.7-25.8,5.7-35.7,0-5-2.9-7.5-6.7-7.5-10.5v-.6c0,3.8,2.5,7.5,7.5,10.4,9.9,5.7,25.9,5.7,35.7,0C88.7,158.7,91.2,155,91.2,151.2Z"/><path class="cls-2" d="M83.7,140.8c9.9,5.7,10,15,.1,20.7s-25.8,5.7-35.7,0-9.9-15-.1-20.7S73.8,135.1,83.7,140.8ZM49.2,160.9c9.3,5.3,24.3,5.3,33.5,0s9.2-14.1-.1-19.4-24.3-5.4-33.5,0-9.1,14,.1,19.4"/></g><g class="cls-1"><polygon class="cls-12" points="61.4 154 61.4 154.7 57.5 146.3 57.5 145.6 61.4 154"/><polygon class="cls-2" points="75.9 156.2 61.4 154 57.5 145.6 81.6 142.2 75.9 156.2"/><polygon class="cls-12" points="75.9 156.2 75.9 156.9 61.4 154.7 61.4 154 75.9 156.2"/><polygon class="cls-12" points="81.6 142.2 81.6 142.9 75.9 156.9 75.9 156.2 81.6 142.2"/><polygon class="cls-12" points="75.2 157.5 75.2 158.2 52.2 160 52.2 159.3 75.2 157.5"/><polygon class="cls-2" points="59.4 155.1 75.2 157.5 52.2 159.3 55.3 146 59.4 155.1"/></g><g class="cls-1"><path class="cls-8" d="M42.9,108.5a21.5,21.5,0,0,0,6.4,1.6l-.9,1.4a26.5,26.5,0,0,1-6.5-1.5Z"/><path class="cls-8" d="M27.4,95.2c2.8,5.7,9,10.8,15.5,13.3l-1,1.5c-6.5-2.5-12.7-7.7-15.4-13.4-1.8-3.8-1.8-7.1-.2-9.4l.9-1.4C25.7,88.1,25.6,91.4,27.4,95.2Z"/><path class="cls-8" d="M49.3,110.1c4.3.3,7.4-1,9-3.3l-1,1.4c-1.6,2.3-4.7,3.6-8.9,3.3Z"/><path class="cls-9" d="M26.3,87.2l.9-1.4c1.6-2.3,4.7-3.6,9-3.3l-1,1.5C30.9,83.6,27.8,84.9,26.3,87.2Z"/><path class="cls-14" d="M21.7,83.6l.9-1.5c2.1-3,6.2-4.7,11.8-4.3l-.9,1.4C27.8,78.8,23.7,80.5,21.7,83.6Z"/><path class="cls-9" d="M58.3,106.8l-1,1.4c1.5-2.3,1.6-5.6-.2-9.3C53.4,91.3,43.6,84.6,35.2,84l1-1.5c8.4.7,18.2,7.3,21.8,14.9C59.9,101.2,59.8,104.5,58.3,106.8Z"/><path class="cls-8" d="M33.5,79.2c11.2.8,24.1,9.7,29,19.7s-.4,17.6-11.6,16.8S26.8,106,22,95.9,22.3,78.4,33.5,79.2Zm14.9,32.3c8.4.6,12.3-5,8.7-12.6S43.6,84.6,35.2,84s-12.4,5-8.7,12.6,13.4,14.3,21.9,14.9"/><path class="cls-9" d="M35.2,84c8.4.6,18.2,7.3,21.9,14.9s-.3,13.2-8.7,12.6-18.3-7.3-21.9-14.9S26.7,83.3,35.2,84Z"/><path class="cls-15" d="M63.7,109.9l-1,1.4c2.1-3,2.2-7.4-.2-12.4-4.9-10-17.8-18.9-29-19.7l.9-1.4c11.2.8,24.2,9.7,29,19.7C65.8,102.5,65.7,106.9,63.7,109.9Z"/></g><g class="cls-1"><path class="cls-12" d="M24.2,86.7l.4-.5c-1.8,2.6-1.8,6.3.2,10.5,4.1,8.5,15,16,24.5,16.7l-.3.5c-9.5-.7-20.5-8.2-24.5-16.7C22.4,93,22.5,89.3,24.2,86.7Z"/><path class="cls-12" d="M59.3,109.7l-.4.5c-1.7,2.6-5.2,4-9.9,3.7l.3-.5C54,113.7,57.5,112.3,59.3,109.7Z"/><path class="cls-12" d="M23.1,85.9l.3-.4c1.9-2.8,5.6-4.3,10.6-4l-.3.5C28.6,81.6,24.9,83.2,23.1,85.9Z"/><path class="cls-12" d="M60.4,110.5l-.3.5c1.8-2.8,1.9-6.7-.3-11.2-4.3-9.1-16-17-26.1-17.8l.3-.5c10.1.8,21.8,8.8,26.2,17.8C62.3,103.8,62.3,107.8,60.4,110.5Z"/><path class="cls-2" d="M33.7,82c10.1.8,21.8,8.7,26.1,17.8s-.3,15.8-10.3,15.1-21.8-8.7-26.2-17.8S23.6,81.3,33.7,82ZM49,113.9c9.4.7,13.8-5.7,9.7-14.2S43.6,83.8,34.2,83.1s-13.8,5.6-9.7,14.1,15,16,24.5,16.7"/></g><g class="cls-1"><path class="cls-12" d="M42.3,106l-.3.5a3.5,3.5,0,0,0-.1-3.3,11.6,11.6,0,0,0-1.1-1.6l.4-.4a6.5,6.5,0,0,1,1,1.5A3.3,3.3,0,0,1,42.3,106Z"/><path class="cls-12" d="M31.1,99.1l.4-.4c.5-.9,1.6-1.3,3.1-1.2a9.2,9.2,0,0,1,4.7,2l-.3.4A9.9,9.9,0,0,0,34.2,98,3.4,3.4,0,0,0,31.1,99.1Z"/><path class="cls-12" d="M41.2,98.3l-.3.5c-.2.3-.8.5-1.9,1.1l.3-.4C40.4,98.8,41,98.6,41.2,98.3Z"/><path class="cls-12" d="M41.8,96l.4-.5c1.7,3.7.4,2.4,4.9,4.5l-.3.5C42.3,98.3,43.6,99.7,41.8,96Z"/><path class="cls-12" d="M46.8,100.4l.3-.5a3.6,3.6,0,0,1,3.3-1.2,10,10,0,0,1,7.5,5.2,3,3,0,0,1,.1,3.3l-.3.5a3.3,3.3,0,0,0-.1-3.3A9.9,9.9,0,0,0,50,99.2,3.3,3.3,0,0,0,46.8,100.4Z"/><path class="cls-12" d="M33.1,87.5l.3-.5a3.3,3.3,0,0,1,3.1-1.1l-.3.5C34.7,86.3,33.6,86.7,33.1,87.5Z"/><path class="cls-12" d="M44.2,94.4l-.3.4a3,3,0,0,0,0-3.2,10.1,10.1,0,0,0-7.7-5.2l.3-.5a10.1,10.1,0,0,1,7.7,5.2A3.2,3.2,0,0,1,44.2,94.4Z"/><path class="cls-2" d="M36.2,86.4a10.1,10.1,0,0,1,7.7,5.2c1.1,2.3.2,4.1-2.1,4.4,1.8,3.7.5,2.3,5,4.5A3,3,0,0,1,50,99.2a9.9,9.9,0,0,1,7.6,5.2c1.3,2.6,0,4.6-3,4.4a10.1,10.1,0,0,1-7.6-5.2,6.5,6.5,0,0,1-.5-1.5,23.6,23.6,0,0,0-3.4-1.6c-.6,0-1,.4-2.3,1.1a11.6,11.6,0,0,1,1.1,1.6c1.3,2.7-.1,4.6-3,4.4a10.1,10.1,0,0,1-7.7-5.2c-1.3-2.6.1-4.6,3-4.4A9.9,9.9,0,0,1,39,99.9c2.5-1.4,2.4-.7.8-4a10.1,10.1,0,0,1-6.6-5.1C31.9,88.1,33.3,86.2,36.2,86.4Z"/></g><g class="cls-1"><path class="cls-8" d="M106.4,78.3c1.6-3.9,1.4-7.2-.3-9.4l1,1.4c1.7,2.2,2,5.5.4,9.3-3.2,7.8-12.6,15.1-21,16.2l-1.1-1.4C93.8,93.3,103.2,86.1,106.4,78.3Z"/><path class="cls-8" d="M76.3,91.6c1.7,2.3,4.9,3.4,9.1,2.8l1.1,1.4c-4.3.5-7.4-.6-9.1-2.8A17.1,17.1,0,0,1,76.3,91.6Z"/><path class="cls-9" d="M106.1,68.9l1,1.4c-1.7-2.2-4.8-3.3-9-2.8L97,66.2C101.2,65.6,104.4,66.7,106.1,68.9Z"/><path class="cls-16" d="M114.6,65.1l1,1.3c-2.2-2.9-6.4-4.4-12-3.6l-1.1-1.4C108.1,60.7,112.3,62.1,114.6,65.1Z"/><path class="cls-9" d="M98.1,67.5c8.4-1.1,12.6,4.3,9.4,12.1s-12.6,15.1-21,16.2S73.8,91.5,77,83.7,89.7,68.6,98.1,67.5Z"/><path class="cls-9" d="M77.4,93l-1.1-1.4c-1.6-2.1-1.9-5.4-.3-9.3,3.2-7.8,12.6-15,21-16.1l1.1,1.3C89.7,68.6,80.2,75.9,77,83.7,75.5,87.5,75.7,90.8,77.4,93Z"/><path class="cls-17" d="M76.2,96.5l-1.1-1.4c-2.2-2.9-2.5-7.2-.4-12.4C79,72.4,91.4,62.9,102.5,61.4l1.1,1.4C92.4,64.2,80,73.8,75.8,84.1,73.6,89.2,74,93.6,76.2,96.5Z"/><path class="cls-8" d="M103.6,62.8c11.1-1.5,16.7,5.7,12.4,16S99.3,98.7,88.2,100.1s-16.7-5.7-12.4-16S92.4,64.2,103.6,62.8Zm-17.1,33c8.4-1.1,17.8-8.4,21-16.2s-1-13.2-9.4-12.1S80.2,75.9,77,83.7s1.1,13.2,9.5,12.1"/></g><g class="cls-1"><path class="cls-12" d="M111.8,69.3l.4.5c1.9,2.4,2.1,6.1.4,10.5C109,89,98.4,97.1,89.1,98.3l-.4-.5c9.4-1.2,19.9-9.3,23.5-18C114,75.5,113.7,71.8,111.8,69.3Z"/><path class="cls-12" d="M78.9,95.2l-.4-.5c1.9,2.5,5.5,3.8,10.2,3.1l.4.5C84.3,98.9,80.8,97.7,78.9,95.2Z"/><path class="cls-12" d="M113,68.5l.3.4c-2-2.6-5.8-3.9-10.8-3.3l-.4-.4C107.2,64.5,110.9,65.8,113,68.5Z"/><path class="cls-12" d="M77.8,96.1l-.4-.5c-2-2.6-2.3-6.5-.4-11.2,3.9-9.3,15.1-17.9,25.1-19.2l.4.4c-10,1.4-21.3,10-25.1,19.3C75.5,89.5,75.8,93.4,77.8,96.1Z"/><path class="cls-2" d="M102.5,65.6c10-1.3,15,5.2,11.2,14.5S98.6,98,88.6,99.4s-15-5.2-11.2-14.5S92.5,67,102.5,65.6ZM89.1,98.3c9.3-1.2,19.9-9.3,23.5-18S111.4,65.5,102,66.7,82.1,76,78.5,84.7s1.2,14.8,10.6,13.6"/></g><g class="cls-1"><polygon class="cls-12" points="99.4 85.5 99 85 104.7 77.3 105 77.7 99.4 85.5"/><path class="cls-12" d="M110.8,72.9l.3.5c-.3-.4-1-.6-2.1-.5l-.3-.5A2.5,2.5,0,0,1,110.8,72.9Z"/><polygon class="cls-12" points="85.2 87.3 84.9 86.9 99 85 99.4 85.5 85.2 87.3"/><polygon class="cls-12" points="81.7 92.2 81.4 91.7 84.9 86.9 85.2 87.3 81.7 92.2"/><polygon class="cls-12" points="90.9 79.6 90.6 79.2 94 74.4 94.4 74.8 90.9 79.6"/><polygon class="cls-12" points="94.4 74.8 94 74.4 108.7 72.4 109 72.9 94.4 74.8"/><path class="cls-2" d="M109,72.9c1.3-.2,2,.1,2.3.8a3.5,3.5,0,0,1-1,2.9L104,85.3a14.3,14.3,0,0,1-3.6,3.3,9.2,9.2,0,0,1-4.1,1.6l-14.6,2,3.5-4.9,14.2-1.8,5.6-7.8L90.9,79.6l3.5-4.8Z"/></g><polygon class="cls-18" points="87 81.4 96.7 79.8 93.9 84.8 84 86.2 87 81.4"/><g class="cls-1"><path class="cls-8" d="M51.6,35.8a37.2,37.2,0,0,0,13.2,14L62.7,51c-5.2-3-9.8-8.1-13.2-14Z"/><path class="cls-8" d="M46.1,17.4c0,5.9,2.1,12.5,5.5,18.4L49.5,37C46.1,31.1,44,24.5,44,18.6S46.1,8.5,49.5,6.5l2.1-1.2C48.2,7.3,46.1,11.4,46.1,17.4Z"/><path class="cls-8" d="M64.8,49.8c5.2,3,10,3.3,13.4,1.3l-2.1,1.2c-3.4,2-8.2,1.7-13.4-1.3Z"/><path class="cls-9" d="M49.5,6.5l2.1-1.2c3.4-2,8.1-1.7,13.3,1.3L62.8,7.8C57.6,4.8,52.9,4.5,49.5,6.5Z"/><path class="cls-19" d="M49.6,6l2.1-1.2c4.5-2.6,10.7-2.3,17.6,1.7l-2,1.2C60.3,3.8,54.1,3.4,49.6,6Z"/><path class="cls-9" d="M62.8,7.8c10.4,6,18.8,20.5,18.8,32.5S73.1,57,62.7,51,44,30.5,44,18.6,52.5,1.8,62.8,7.8Z"/><path class="cls-9" d="M78.2,51.1l-2.1,1.2c3.4-2,5.5-6.1,5.5-12,0-12-8.4-26.5-18.8-32.5l2.1-1.2c10.4,6,18.8,20.5,18.8,32.4C83.7,45,81.6,49.1,78.2,51.1Z"/><path class="cls-20" d="M86.9,65.4l-2.1,1.2C89.2,64,92,58.5,92,50.7c.1-15.8-11-35-24.7-43l2-1.2c13.8,8,24.9,27.2,24.8,42.9C94.1,57.3,91.3,62.8,86.9,65.4Z"/><path class="cls-8" d="M67.3,7.7c13.7,8,24.8,27.2,24.7,43S80.8,72.8,67.1,64.9,42.3,37.7,42.3,22,53.5-.2,67.3,7.7ZM62.7,51c10.4,6,18.8,1.2,18.9-10.7S73.2,13.8,62.8,7.8,44,6.6,44,18.6,52.4,45,62.7,51"/></g><g class="cls-1"><path class="cls-12" d="M51.5,11.5l.7-.4c-3.8,2.2-6.1,6.8-6.1,13.4C46,37.8,55.4,54.1,67,60.8l-.7.4c-11.6-6.7-21-23-20.9-36.3C45.4,18.3,47.7,13.7,51.5,11.5Z"/><path class="cls-12" d="M81.9,62.3l-.7.4c-3.8,2.2-9.1,1.9-14.9-1.5l.7-.4C72.8,64.2,78.1,64.5,81.9,62.3Z"/><path class="cls-12" d="M50.5,9.8l.7-.5c4.1-2.3,9.7-2,15.9,1.6l-.7.4C60.2,7.7,54.6,7.4,50.5,9.8Z"/><path class="cls-12" d="M82.9,64l-.7.4c4.1-2.4,6.6-7.3,6.6-14.4,0-14.2-10-31.6-22.4-38.7l.7-.4C79.5,18,89.5,35.4,89.5,49.6,89.5,56.7,87,61.6,82.9,64Z"/><path class="cls-2" d="M66.4,11.3C78.8,18.4,88.8,35.8,88.8,50S78.7,70,66.3,62.8,43.9,38.3,43.9,24.1,54.1,4.2,66.4,11.3Zm-.1,49.9c11.6,6.7,21,1.3,21.1-12S78,19.6,66.4,12.9s-21-1.3-21,12,9.3,29.6,20.9,36.3"/></g><g class="cls-1"><polygon class="cls-12" points="53 40.3 53.7 39.9 57.8 42.3 57.1 42.7 53 40.3"/><polygon class="cls-12" points="64.4 52.4 65.1 52 65.1 56 64.4 56.4 64.4 52.4"/><polygon class="cls-2" points="70.7 55.6 71.4 55.2 71.3 59.6 70.7 60 70.7 55.6"/><polygon class="cls-12" points="62.9 46 63.6 45.6 67.4 47.8 66.8 48.2 62.9 46"/><polygon class="cls-2" points="62.9 37.8 63.6 37.4 63.6 45.6 62.9 46 62.9 37.8"/><path class="cls-12" d="M71.1,48.6l-.7.4h-.3c-.7.3-1.8,0-3.4-.9l.7-.4c1.6.9,2.7,1.2,3.4.9Z"/><polygon class="cls-12" points="62.9 32.6 63.6 32.2 66.9 34.1 66.2 34.5 62.9 32.6"/><polygon class="cls-12" points="62.9 25.6 63.6 25.2 63.6 32.2 62.9 32.6 62.9 25.6"/><path class="cls-12" d="M66.2,34.5l.7-.4.6.3c1.3.7,2.2,1,2.8.8l-.7.4c-.6.2-1.5-.1-2.8-.8Z"/><polygon class="cls-2" points="72.4 40.4 73.1 39.9 73.1 40.2 72.4 40.6 72.4 40.4"/><path class="cls-2" d="M70.7,35.1l-.7.4h-.4l.7-.4Z"/><polygon class="cls-12" points="53.1 14.5 53.8 14.1 61.3 18.5 60.6 18.9 53.1 14.5"/><path class="cls-12" d="M76,55.1l-.7.4c1.3-.8,2-2.4,2-4.8a12.6,12.6,0,0,0-1.2-5.5l.7-.4A12.6,12.6,0,0,1,78,50.3C78,52.7,77.3,54.3,76,55.1Z"/><path class="cls-12" d="M72.4,40.6l.7-.4a12.2,12.2,0,0,1,3.7,4.6l-.7.4A13,13,0,0,0,72.4,40.6Z"/><polygon class="cls-12" points="64.5 21.1 65.2 20.7 66.3 21.4 65.6 21.8 64.5 21.1"/><path class="cls-12" d="M65.6,21.8l.7-.4,1.2.7-.7.4Z"/><polygon class="cls-12" points="60.6 14.8 61.3 14.4 65.2 16.7 64.5 17.1 60.6 14.8"/><polygon class="cls-12" points="64.5 17.1 65.2 16.7 65.2 20.7 64.5 21.1 64.5 17.1"/><path class="cls-12" d="M75.7,39.9l-.7.4.5-.3a6,6,0,0,0,1.1-4A11.8,11.8,0,0,0,74,28.5a17.1,17.1,0,0,0-3.3-3.3l.7-.4a17.1,17.1,0,0,1,3.3,3.3,11.8,11.8,0,0,1,2.6,7.5,6,6,0,0,1-1.1,4Z"/><polygon class="cls-12" points="70.8 20.7 71.5 20.3 71.4 24.8 70.7 25.2 70.8 20.7"/><polygon class="cls-12" points="66.8 18.4 67.5 18 71.5 20.3 70.8 20.7 66.8 18.4"/><path class="cls-2" d="M76.1,45.2a12.6,12.6,0,0,1,1.2,5.5c0,2.8-1,4.5-2.7,5.1a6.6,6.6,0,0,1-3.9-.2V60l-4-2.3v-4l-2.3-1.3v4l-3.9-2.3v-4L53,45.8V40.3l4.1,2.4V22.3L53.1,20V14.5l7.5,4.4V14.8l3.9,2.3v4l1.1.7,1.2.7V18.4l4,2.3v4.5A17.1,17.1,0,0,1,74,28.5,11.8,11.8,0,0,1,76.6,36a6,6,0,0,1-1.1,4,3,3,0,0,1-3.1.4v.2A13,13,0,0,1,76.1,45.2Zm-5.4,3.6a3.4,3.4,0,0,0,.6-2.2,5.8,5.8,0,0,0-.6-2.6,10.3,10.3,0,0,0-3.9-3.9l-.4-.2-3.5-2.1V46l3.8,2.2c1.6.9,2.7,1.2,3.4.9l.6-.3M62.9,25.6v7l3.3,1.9.6.3c1.3.7,2.2,1,2.8.8s1.1-.8,1.1-2.1a5.2,5.2,0,0,0-1.1-3.2,13.9,13.9,0,0,0-2.8-2.4l-.9-.5-3-1.8"/></g><path class="cls-21" d="M8.7,155.3V0h120V155.4l-3.2,4.4L79.5,186.9a19.5,19.5,0,0,1-20.9,0L11.9,159.8Z"/></g></g></g></svg>