<svg xmlns="http://www.w3.org/2000/svg" xmlns:xlink="http://www.w3.org/1999/xlink" viewBox="0 0 267.9 279.8"><defs><style>.cls-1{isolation:isolate;}.cls-2{fill:#8999b0;}.cls-19,.cls-3{fill:#283658;}.cls-4{fill:url(#Degradado_sin_nombre_2);}.cls-5{fill:#d4d4d4;}.cls-6{fill:url(#Degradado_sin_nombre_2-2);}.cls-7{fill:url(#Degradado_sin_nombre_2-3);}.cls-8{fill:#ccc;}.cls-9{fill:#fff;}.cls-10{fill:#eef1ff;}.cls-11{fill:url(#Degradado_sin_nombre_2-4);}.cls-12{fill:url(#Degradado_sin_nombre_2-5);}.cls-13{fill:#bf93ff;}.cls-14{fill:url(#Degradado_sin_nombre_2-6);}.cls-15{fill:url(#Degradado_sin_nombre_2-7);}.cls-16{fill:url(#Degradado_sin_nombre_2-8);}.cls-17{fill:url(#Degradado_sin_nombre_2-9);}.cls-18{fill:url(#Degradado_sin_nombre_2-10);}.cls-19{fill-rule:evenodd;}.cls-20{fill:url(#Degradado_sin_nombre_2-11);}.cls-21{fill:url(#Degradado_sin_nombre_2-12);}.cls-22{mix-blend-mode:hard-light;fill:url(#linear-gradient);}</style><linearGradient id="Degradado_sin_nombre_2" x1="65.57" y1="192.03" x2="202.51" y2="192.03" gradientUnits="userSpaceOnUse"><stop offset="0" stop-color="#283658"/><stop offset="1" stop-color="#5b6fa6"/></linearGradient><linearGradient id="Degradado_sin_nombre_2-2" x1="65.7" y1="177.37" x2="202.63" y2="177.37" xlink:href="#Degradado_sin_nombre_2"/><linearGradient id="Degradado_sin_nombre_2-3" x1="65.78" y1="162.37" x2="202.72" y2="162.37" xlink:href="#Degradado_sin_nombre_2"/><linearGradient id="Degradado_sin_nombre_2-4" x1="158.71" y1="103.34" x2="187.66" y2="145.81" gradientTransform="translate(-52.2 101.1) rotate(-31.8)" xlink:href="#Degradado_sin_nombre_2"/><linearGradient id="Degradado_sin_nombre_2-5" x1="158.49" y1="103.49" x2="187.44" y2="145.97" gradientTransform="translate(-52.2 101.1) rotate(-31.8)" xlink:href="#Degradado_sin_nombre_2"/><linearGradient id="Degradado_sin_nombre_2-6" x1="103.86" y1="160.34" x2="159.91" y2="160.34" xlink:href="#Degradado_sin_nombre_2"/><linearGradient id="Degradado_sin_nombre_2-7" x1="128.4" y1="-57.59" x2="158.94" y2="-16.71" gradientTransform="translate(2.9 188.3) rotate(-25.8)" xlink:href="#Degradado_sin_nombre_2"/><linearGradient id="Degradado_sin_nombre_2-8" x1="127.09" y1="-56.61" x2="157.63" y2="-15.72" gradientTransform="translate(2.9 188.3) rotate(-25.8)" xlink:href="#Degradado_sin_nombre_2"/><linearGradient id="Degradado_sin_nombre_2-9" x1="159.18" y1="183.45" x2="199.6" y2="183.83" gradientTransform="translate(67.4 -180) rotate(22.5)" xlink:href="#Degradado_sin_nombre_2"/><linearGradient id="Degradado_sin_nombre_2-10" x1="158.98" y1="205.57" x2="199.39" y2="205.95" gradientTransform="translate(67.4 -180) rotate(22.5)" xlink:href="#Degradado_sin_nombre_2"/><linearGradient id="Degradado_sin_nombre_2-11" x1="126.39" y1="11.24" x2="143.91" y2="74.66" xlink:href="#Degradado_sin_nombre_2"/><linearGradient id="Degradado_sin_nombre_2-12" x1="141.07" y1="7.19" x2="158.59" y2="70.6" xlink:href="#Degradado_sin_nombre_2"/><linearGradient id="linear-gradient" x1="137" y1="22.23" x2="128.14" y2="198.07" gradientUnits="userSpaceOnUse"><stop offset="0" stop-color="#545dc7" stop-opacity="0"/><stop offset="1" stop-color="#fff"/></linearGradient></defs><g class="cls-1"><g id="Layer_2" data-name="Layer 2"><g id="OBJECTS"><polygon class="cls-2" points="135.2 125.6 135 125.7 133.5 124.8 132 125.7 131.9 125.6 133.5 124.6 135.2 125.6"/><polygon class="cls-2" points="264.1 200 264.7 200.4 264.5 200.5 263.9 200.1 264.1 200"/><polygon class="cls-2" points="259.6 197.6 259.8 197.5 262 198.8 261.8 198.9 259.6 197.6"/><g class="cls-1"><polygon class="cls-2" points="255.6 195.2 255.5 195.3 254.1 196.2 253.9 196 255.4 195.2 255.5 195.1 255.6 195.2"/><polygon class="cls-2" points="255.3 195.1 255.5 195 257.6 196.3 257.4 196.4 255.5 195.3 255.6 195.2 255.5 195.1 255.4 195.2 255.3 195.1"/></g><polygon class="cls-2" points="250.9 192.6 251.1 192.5 253.3 193.8 253.1 193.9 250.9 192.6"/><polygon class="cls-2" points="246.6 190.1 246.8 190 248.9 191.3 248.8 191.4 246.6 190.1"/><polygon class="cls-2" points="242.3 187.6 242.4 187.5 244.6 188.8 244.4 188.9 243.3 188.3 243.4 188.2 243.3 188.1 243.2 188.1 242.3 187.6"/><polygon class="cls-2" points="237.9 185.1 238.1 185 240.3 186.3 240.1 186.4 237.9 185.1"/><polygon class="cls-2" points="233.6 182.6 233.8 182.5 235.9 183.8 235.8 183.9 233.6 182.6"/><polygon class="cls-2" points="229.3 180.1 229.4 180 231.6 181.3 231.4 181.4 231.1 181.2 231.2 181.2 231.1 181.1 231 181.1 229.3 180.1"/><polygon class="cls-2" points="224.9 177.6 225.1 177.5 227.3 178.8 227.1 178.9 224.9 177.6"/><polygon class="cls-2" points="220.6 175.1 220.8 175 222.9 176.3 222.8 176.4 220.6 175.1"/><polygon class="cls-2" points="216.3 172.6 216.4 172.5 218.6 173.8 218.4 173.9 216.3 172.6"/><polygon class="cls-2" points="211.9 170.1 212.1 170 214.3 171.3 214.1 171.4 211.9 170.1"/><polygon class="cls-2" points="207.6 167.6 207.8 167.5 209.9 168.8 209.7 168.9 207.6 167.6"/><polygon class="cls-2" points="203.2 165.1 203.4 165 205.6 166.2 205.4 166.4 203.2 165.1"/><polygon class="cls-2" points="198.9 162.6 199.1 162.5 201.3 163.7 201.1 163.8 198.9 162.6"/><polygon class="cls-2" points="194.6 160.1 194.7 160 196.9 161.2 196.7 161.3 194.6 160.1"/><polygon class="cls-2" points="190.2 157.6 190.4 157.5 192.6 158.7 192.4 158.8 190.2 157.6"/><polygon class="cls-2" points="185.9 155.1 186.1 155 188.2 156.2 188.1 156.3 185.9 155.1"/><polygon class="cls-2" points="181.6 152.6 181.7 152.5 183.9 153.7 183.7 153.8 182.3 153 182.4 153 182.2 152.9 182.2 152.9 181.6 152.6"/><polygon class="cls-2" points="177.2 150.1 177.4 150 179.6 151.2 179.4 151.3 177.2 150.1"/><polygon class="cls-2" points="172.9 147.6 173.1 147.5 175.2 148.7 175.1 148.8 172.9 147.6"/><polygon class="cls-2" points="168.6 145.1 168.7 145 170.9 146.2 170.7 146.3 170.1 146 170.2 145.9 170 145.8 169.9 145.9 168.6 145.1"/><polygon class="cls-2" points="164.2 142.6 164.4 142.5 166.6 143.7 166.4 143.8 164.2 142.6"/><polygon class="cls-2" points="159.9 140.1 160.1 140 162.2 141.2 162 141.3 159.9 140.1"/><polygon class="cls-2" points="158 138.9 156.5 139.8 156.3 139.7 157.8 138.8 158 138.9"/><polygon class="cls-2" points="155.5 137.6 155.7 137.5 157.9 138.7 157.7 138.8 155.5 137.6"/><polygon class="cls-2" points="151.2 135.1 151.4 135 153.6 136.2 153.4 136.3 151.2 135.1"/><polygon class="cls-2" points="146.9 132.6 147 132.4 149.2 133.7 149 133.8 146.9 132.6"/><polygon class="cls-2" points="142.5 130.1 142.7 129.9 144.9 131.2 144.7 131.3 142.5 130.1"/><polygon class="cls-2" points="138.2 127.5 138.4 127.4 140.5 128.7 140.4 128.8 138.2 127.5"/><polygon class="cls-2" points="267.9 202.2 266.3 203.2 266.1 203.1 267.6 202.2 266.1 201.4 266.3 201.3 267.9 202.2"/><polygon class="cls-2" points="262.9 204.9 263.1 205 260.9 206.3 260.8 206.2 262.9 204.9"/><polygon class="cls-2" points="256.5 208.7 258.6 207.4 258.8 207.5 256.6 208.8 256.5 208.7"/><polygon class="cls-2" points="252.2 211.2 254.3 209.9 254.5 210 252.3 211.3 252.2 211.2"/><polygon class="cls-2" points="247.8 213.7 250 212.4 250.2 212.6 248 213.8 247.8 213.7"/><polygon class="cls-2" points="243.6 216.3 243.4 216.4 241.8 215.5 242 215.4 243.6 216.3"/><polygon class="cls-2" points="243.5 216.2 245.7 215 245.9 215.1 243.7 216.3 243.5 216.2"/><polygon class="cls-2" points="239.2 218.7 241.4 217.5 241.6 217.6 239.4 218.8 239.2 218.7"/><polygon class="cls-2" points="234.9 221.2 237.1 220 237.3 220.1 235.1 221.3 234.9 221.2"/><polygon class="cls-2" points="231.5 223.3 231.3 223.4 231.2 223.4 229.7 222.5 229.9 222.4 231.4 223.3 231.5 223.3"/><polygon class="cls-2" points="231.4 223.3 232.8 222.5 232.9 222.6 230.8 223.8 230.6 223.7 231.2 223.4 231.3 223.4 231.5 223.3 231.4 223.3"/><polygon class="cls-2" points="226.3 226.2 228.5 225 228.6 225.1 226.5 226.3 226.3 226.2"/><polygon class="cls-2" points="222 228.7 224.1 227.5 224.3 227.6 222.2 228.8 222 228.7"/><polygon class="cls-2" points="219.3 230.4 219.2 230.5 219.1 230.4 217.6 229.6 217.8 229.5 219.3 230.3 219.3 230.4"/><polygon class="cls-2" points="219.3 230.3 219.8 230 220 230.1 217.9 231.3 217.7 231.2 219.1 230.4 219.2 230.5 219.3 230.4 219.3 230.3"/><polygon class="cls-2" points="213.4 233.7 215.5 232.5 215.7 232.6 213.6 233.8 213.4 233.7"/><polygon class="cls-2" points="209.1 236.2 211.2 235 211.4 235.1 209.2 236.3 209.1 236.2"/><polygon class="cls-2" points="207.2 237.4 207 237.5 205.5 236.6 205.6 236.5 207.2 237.4"/><polygon class="cls-2" points="204.8 238.7 206.9 237.5 207.1 237.6 204.9 238.8 204.8 238.7"/><polygon class="cls-2" points="200.5 241.2 202.6 240 202.8 240.1 200.6 241.3 200.5 241.2"/><polygon class="cls-2" points="196.1 243.7 198.3 242.5 198.5 242.6 196.3 243.8 196.1 243.7"/><polygon class="cls-2" points="191.8 246.2 194 245 194.2 245.1 192 246.3 191.8 246.2"/><polygon class="cls-2" points="187.5 248.8 189.7 247.5 189.9 247.6 187.7 248.9 187.5 248.8"/><polygon class="cls-2" points="183.2 251.3 185.4 250 185.6 250.1 183.4 251.4 183.2 251.3"/><polygon class="cls-2" points="178.9 253.8 181.1 252.5 181.2 252.6 179.1 253.9 178.9 253.8"/><polygon class="cls-2" points="174.6 256.3 176.8 255 176.9 255.1 174.8 256.4 174.6 256.3"/><polygon class="cls-2" points="170.8 258.5 172.4 257.5 172.6 257.6 170.5 258.9 170.3 258.8 170.6 258.6 170.7 258.6 170.9 258.5 170.8 258.5"/><polygon class="cls-2" points="166 261.3 168.1 260 168.3 260.1 166.2 261.4 166 261.3"/><polygon class="cls-2" points="161.7 263.8 163.8 262.5 164 262.6 161.9 263.9 161.7 263.8"/><polygon class="cls-2" points="158.6 265.5 159.5 265 159.7 265.1 157.6 266.4 157.4 266.3 158.5 265.6 158.6 265.7 158.7 265.6 158.6 265.5"/><polygon class="cls-2" points="153.1 268.8 155.2 267.5 155.4 267.6 153.2 268.9 153.1 268.8"/><polygon class="cls-2" points="148.8 271.3 150.9 270 151.1 270.1 148.9 271.4 148.8 271.3"/><polygon class="cls-2" points="146.5 272.6 146.6 272.5 146.8 272.6 144.6 273.9 144.4 273.8 146.3 272.7 146.4 272.7 146.6 272.6 146.5 272.6"/><polygon class="cls-2" points="140.1 276.3 142.3 275 142.5 275.1 140.3 276.4 140.1 276.3"/><polygon class="cls-2" points="137.5 277.8 138 277.5 138.2 277.6 137.6 278 137.5 277.8"/><polygon class="cls-2" points="136 278.9 134.4 279.8 132.7 278.9 132.9 278.8 134.4 279.6 135.9 278.8 136 278.9"/><polygon class="cls-2" points="127.6 275.7 129.7 276.9 129.5 277 127.4 275.8 127.6 275.7"/><polygon class="cls-2" points="123 273.3 123.2 273.2 125.4 274.4 125.2 274.5 123 273.3"/><polygon class="cls-2" points="118.7 270.8 118.9 270.7 121 271.9 120.9 272 118.7 270.8"/><polygon class="cls-2" points="114.4 268.3 114.5 268.2 116.7 269.4 116.5 269.5 114.4 268.3"/><polygon class="cls-2" points="111.6 264.8 110.1 265.7 109.9 265.6 111.5 264.7 111.6 264.8"/><polygon class="cls-2" points="110 265.8 110.2 265.7 112.4 266.9 112.2 267 110 265.8"/><polygon class="cls-2" points="105.7 263.3 105.9 263.2 108 264.4 107.9 264.5 105.7 263.3"/><polygon class="cls-2" points="101.4 260.8 101.5 260.7 103.7 261.9 103.5 262 101.4 260.8"/><polygon class="cls-2" points="97.9 258.6 98 258.6 99.4 259.4 99.2 259.5 97 258.3 97.2 258.1 97.8 258.5 97.7 258.5 97.9 258.6"/><polygon class="cls-2" points="92.7 255.8 92.9 255.6 95 256.9 94.9 257 92.7 255.8"/><polygon class="cls-2" points="88.4 253.2 88.5 253.1 90.7 254.4 90.5 254.5 88.4 253.2"/><polygon class="cls-2" points="87.2 250.7 85.8 251.5 85.7 251.6 85.5 251.5 85.6 251.4 87.1 250.6 87.2 250.7"/><polygon class="cls-2" points="85.7 251.6 85.8 251.5 86.4 251.9 86.2 252 84 250.7 84.2 250.6 85.6 251.4 85.5 251.5 85.7 251.6"/><polygon class="cls-2" points="79.7 248.2 79.9 248.1 82 249.4 81.8 249.5 79.7 248.2"/><polygon class="cls-2" points="75.3 245.7 75.5 245.6 77.7 246.9 77.5 247 75.3 245.7"/><polygon class="cls-2" points="71 243.2 71.2 243.1 73.3 244.4 73.2 244.5 71 243.2"/><polygon class="cls-2" points="66.7 240.7 66.8 240.6 69 241.9 68.8 242 66.7 240.7"/><polygon class="cls-2" points="62.3 238.2 62.5 238.1 64.7 239.4 64.5 239.5 62.3 238.2"/><polygon class="cls-2" points="58 235.7 58.2 235.6 60.3 236.9 60.2 237 58 235.7"/><polygon class="cls-2" points="53.7 233.2 53.8 233.1 56 234.4 55.8 234.5 53.7 233.2"/><polygon class="cls-2" points="49.3 230.7 49.5 230.6 51.7 231.9 51.5 232 49.3 230.7"/><polygon class="cls-2" points="45 228.2 45.2 228.1 47.3 229.4 47.2 229.5 45 228.2"/><polygon class="cls-2" points="40.7 225.7 40.8 225.6 43 226.9 42.8 227 40.7 225.7"/><polygon class="cls-2" points="36.9 223.4 37 223.4 38.7 224.4 38.5 224.5 36.3 223.2 36.5 223.1 36.8 223.3 36.7 223.3 36.9 223.4"/><polygon class="cls-2" points="32 220.7 32.2 220.6 34.3 221.8 34.1 222 32 220.7"/><polygon class="cls-2" points="27.6 218.2 27.8 218.1 30 219.3 29.8 219.4 27.6 218.2"/><polygon class="cls-2" points="24.7 216.4 24.8 216.3 25.7 216.8 25.5 216.9 23.3 215.7 23.5 215.6 24.6 216.2 24.5 216.3 24.7 216.4"/><polygon class="cls-2" points="19 213.2 19.1 213.1 21.3 214.3 21.1 214.4 19 213.2"/><polygon class="cls-2" points="14.6 210.7 14.8 210.6 17 211.8 16.8 211.9 14.6 210.7"/><polygon class="cls-2" points="14 208.4 12.6 209.3 12.5 209.3 12.3 209.2 12.4 209.2 13.8 208.3 14 208.4"/><polygon class="cls-2" points="12.5 209.3 12.6 209.3 12.6 209.3 12.5 209.4 10.3 208.2 10.5 208.1 12.4 209.2 12.3 209.2 12.5 209.3"/><polygon class="cls-2" points="6 205.7 6.1 205.6 8.3 206.8 8.1 206.9 6 205.7"/><polygon class="cls-2" points="3.3 204.1 3.4 204 4 204.3 3.8 204.4 3.3 204.1"/><polygon class="cls-2" points="1.8 201.4 0.3 202.2 1.8 203.1 1.7 203.2 0 202.2 1.6 201.3 1.8 201.4"/><polygon class="cls-2" points="130.3 126.5 130.5 126.6 129.9 126.9 129.8 126.8 130.3 126.5"/><polygon class="cls-2" points="125.4 129.3 127.6 128.1 127.8 128.2 125.6 129.4 125.4 129.3"/><polygon class="cls-2" points="121.1 131.8 123.3 130.6 123.5 130.7 121.6 131.8 121.5 131.7 121.3 131.8 121.4 131.9 121.3 131.9 121.1 131.8"/><polygon class="cls-2" points="116.8 134.3 119 133.1 119.2 133.2 117 134.4 116.8 134.3"/><polygon class="cls-2" points="112.5 136.8 114.7 135.6 114.8 135.7 112.7 136.9 112.5 136.8"/><g class="cls-1"><polygon class="cls-2" points="108.2 139.4 110.4 138.1 110.5 138.2 109.5 138.8 109.4 138.8 109.2 138.9 109.3 138.9 108.4 139.4 108.2 139.4"/><polygon class="cls-2" points="110.9 139.7 110.8 139.8 109.3 138.9 109.2 138.9 109.4 138.8 109.5 138.8 110.9 139.7"/></g><polygon class="cls-2" points="103.9 141.9 106.1 140.6 106.2 140.7 104.1 142 103.9 141.9"/><polygon class="cls-2" points="99.6 144.4 101.8 143.1 101.9 143.2 99.8 144.5 99.6 144.4"/><polygon class="cls-2" points="98.8 146.7 98.6 146.8 97.2 146 97.1 145.9 97.2 145.8 97.3 145.9 98.8 146.7"/><polygon class="cls-2" points="95.3 146.9 97.4 145.6 97.6 145.7 97.3 145.9 97.2 145.8 97.1 145.9 97.2 146 95.5 147 95.3 146.9"/><polygon class="cls-2" points="91 149.4 93.1 148.1 93.3 148.2 91.2 149.5 91 149.4"/><polygon class="cls-2" points="86.7 151.9 88.8 150.6 89 150.7 86.8 152 86.7 151.9"/><polygon class="cls-2" points="82.4 154.4 84.5 153.1 84.7 153.2 82.5 154.5 82.4 154.4"/><polygon class="cls-2" points="78.1 156.9 80.2 155.6 80.4 155.7 78.2 157 78.1 156.9"/><polygon class="cls-2" points="73.8 159.4 75.9 158.1 76.1 158.2 73.9 159.5 73.8 159.4"/><polygon class="cls-2" points="69.4 161.9 71.6 160.6 71.8 160.7 69.6 162 69.4 161.9"/><polygon class="cls-2" points="65.1 164.4 67.3 163.1 67.5 163.2 65.3 164.5 65.1 164.4"/><polygon class="cls-2" points="60.8 166.9 63 165.6 63.2 165.7 61 167 60.8 166.9"/><polygon class="cls-2" points="56.5 169.4 58.7 168.1 58.8 168.2 56.7 169.5 56.5 169.4"/><polygon class="cls-2" points="52.2 171.9 54.4 170.6 54.5 170.7 52.4 172 52.2 171.9"/><polygon class="cls-2" points="47.9 174.4 50.1 173.2 50.2 173.3 48.8 174.1 48.8 174 48.6 174.1 48.7 174.2 48.1 174.5 47.9 174.4"/><polygon class="cls-2" points="43.6 176.9 45.7 175.7 45.9 175.8 43.8 177 43.6 176.9"/><polygon class="cls-2" points="39.3 179.4 41.4 178.2 41.6 178.3 39.5 179.5 39.3 179.4"/><polygon class="cls-2" points="35 181.9 37.1 180.7 37.3 180.8 36.7 181.1 36.6 181.1 36.5 181.2 36.5 181.2 35.1 182 35 181.9"/><polygon class="cls-2" points="30.7 184.4 32.8 183.2 33 183.3 30.8 184.5 30.7 184.4"/><polygon class="cls-2" points="26.4 186.9 28.5 185.7 28.7 185.8 26.5 187 26.4 186.9"/><polygon class="cls-2" points="22.1 189.4 24.2 188.2 24.4 188.3 22.2 189.5 22.1 189.4"/><polygon class="cls-2" points="17.7 191.9 19.9 190.7 20.1 190.8 17.9 192 17.7 191.9"/><polygon class="cls-2" points="13.4 194.4 15.6 193.2 15.8 193.3 13.6 194.5 13.4 194.4"/><polygon class="cls-2" points="9.1 196.9 11.3 195.7 11.5 195.8 9.3 197 9.1 196.9"/><polygon class="cls-2" points="4.8 199.4 7 198.2 7.2 198.3 5 199.5 4.8 199.4"/><polygon class="cls-2" points="14 196 13.8 196.1 12.2 195.2 12.4 195.1 14 196"/><polygon class="cls-2" points="142.9 270.5 143.4 270.8 143.3 270.9 142.7 270.6 142.9 270.5"/><polygon class="cls-2" points="138.4 268.1 138.6 268 140.7 269.2 140.6 269.3 138.4 268.1"/><polygon class="cls-2" points="134.3 265.5 134.4 265.5 134.6 265.6 134.5 265.6 134.3 265.7 132.4 266.8 132.2 266.7 134.1 265.6 134.3 265.5"/><polygon class="cls-2" points="134.3 265.7 134.5 265.6 136.4 266.7 136.2 266.8 134.3 265.7"/><polygon class="cls-2" points="134.1 265.6 134.2 265.5 134.3 265.5 134.1 265.6 134.1 265.6"/><polygon class="cls-2" points="129.7 263.1 129.9 263 132.1 264.2 131.9 264.3 129.7 263.1"/><polygon class="cls-2" points="125.4 260.6 125.6 260.5 127.7 261.7 127.5 261.8 125.4 260.6"/><g class="cls-1"><polygon class="cls-2" points="122.1 258.7 122.3 258.6 123.4 259.2 123.2 259.3 122.1 258.7"/><polygon class="cls-2" points="122.1 258.5 122.2 258.4 122.4 258.5 122.3 258.6 122.1 258.7 120.2 259.8 120 259.7 121.9 258.6 122.1 258.5"/></g><polygon class="cls-2" points="121 258.1 121.2 258 122.1 258.5 121.9 258.6 121 258.1"/><polygon class="cls-2" points="116.7 255.6 116.9 255.5 119.1 256.7 118.9 256.8 116.7 255.6"/><polygon class="cls-2" points="112.4 253.1 112.5 253 114.7 254.2 114.5 254.3 112.4 253.1"/><polygon class="cls-2" points="109.9 251.4 110 251.4 110.2 251.5 110.1 251.5 109.9 251.7 108 252.8 107.8 252.7 109.7 251.6 109.9 251.4"/><polygon class="cls-2" points="108 250.6 108.2 250.5 109.9 251.4 109.7 251.6 108 250.6"/><polygon class="cls-2" points="109.9 251.7 110.1 251.5 110.4 251.7 110.2 251.8 109.9 251.7"/><polygon class="cls-2" points="103.7 248.1 103.9 248 106 249.2 105.9 249.3 103.7 248.1"/><polygon class="cls-2" points="99.4 245.6 99.5 245.5 101.7 246.7 101.5 246.8 99.4 245.6"/><polygon class="cls-2" points="95 243.1 95.2 243 97.4 244.2 97.2 244.3 95 243.1"/><polygon class="cls-2" points="90.7 240.6 90.9 240.5 93 241.7 92.9 241.8 90.7 240.6"/><polygon class="cls-2" points="86.3 238 86.5 237.9 88.7 239.2 88.5 239.3 86.3 238"/><polygon class="cls-2" points="82 235.5 82.2 235.4 84.4 236.7 84.2 236.8 82 235.5"/><polygon class="cls-2" points="77.7 233 77.9 232.9 80 234.2 79.8 234.3 77.7 233"/><polygon class="cls-2" points="71.2 231.5 73.4 230.3 73.6 230.4 71.4 231.6 71.2 231.5"/><polygon class="cls-2" points="73.3 230.5 73.5 230.4 75.7 231.7 75.5 231.8 73.3 230.5"/><polygon class="cls-2" points="69 228 69.2 227.9 71.4 229.2 71.2 229.3 69 228"/><polygon class="cls-2" points="64.7 225.5 64.9 225.4 67 226.7 66.8 226.8 64.7 225.5"/><polygon class="cls-2" points="60.3 223 60.5 222.9 61.1 223.3 60.9 223.4 60.3 223"/><polygon class="cls-2" points="61.1 223.3 61.2 223.2 61.4 223.3 61.3 223.4 61.1 223.5 59.2 224.6 59 224.5 60.9 223.4 61.1 223.3"/><polygon class="cls-2" points="61.1 223.5 61.3 223.4 62.7 224.2 62.5 224.3 61.1 223.5"/><polygon class="cls-2" points="56 220.5 56.2 220.4 58.3 221.7 58.2 221.8 56 220.5"/><polygon class="cls-2" points="51.7 218 51.8 217.9 54 219.2 53.8 219.3 51.7 218"/><polygon class="cls-2" points="48.9 216.4 49.1 216.3 49.7 216.7 49.5 216.8 48.9 216.4"/><polygon class="cls-2" points="47.3 215.5 47.5 215.4 48.9 216.2 48.7 216.3 47.3 215.5"/><polygon class="cls-2" points="43 213 43.2 212.9 45.3 214.2 45.2 214.3 43 213"/><polygon class="cls-2" points="38.7 210.5 38.8 210.4 41 211.7 40.8 211.8 38.7 210.5"/><g class="cls-1"><polygon class="cls-2" points="34.3 208 34.5 207.9 36.7 209.2 36.5 209.3 34.3 208"/><polygon class="cls-2" points="34.6 210.4 36.8 209.1 37 209.2 34.8 210.5 34.6 210.4"/></g><polygon class="cls-2" points="30 205.5 30.2 205.4 32.3 206.7 32.1 206.8 30 205.5"/><polygon class="cls-2" points="25.6 203 25.8 202.9 28 204.2 27.8 204.3 25.6 203"/><polygon class="cls-2" points="21.3 200.5 21.5 200.4 23.7 201.6 23.5 201.8 21.3 200.5"/><polygon class="cls-2" points="17 198 17.2 197.9 19.3 199.1 19.1 199.2 17 198"/><polygon class="cls-2" points="146.6 272.6 146.4 272.7 146.3 272.7 144.9 271.8 145 271.7 146.5 272.6 146.6 272.6"/><polygon class="cls-2" points="26.1 189 25.9 189.1 24.3 188.2 24.5 188.1 26.1 189"/><polygon class="cls-2" points="155 263.4 155.6 263.8 155.4 263.9 154.8 263.6 155 263.4"/><polygon class="cls-2" points="150.5 261 150.7 260.9 152.9 262.2 152.7 262.3 150.5 261"/><g class="cls-1"><polygon class="cls-2" points="146.4 258.5 147.3 258 147.5 258.1 146.6 258.6 146.4 258.7 145.3 259.3 145.2 259.2 146.3 258.6 146.4 258.5"/><polygon class="cls-2" points="146.4 258.7 146.6 258.6 148.5 259.7 148.3 259.8 146.4 258.7"/></g><polygon class="cls-2" points="146.2 258.5 146.3 258.4 146.4 258.5 146.3 258.6 146.2 258.5"/><polygon class="cls-2" points="141.8 256 142 255.9 144.2 257.2 144 257.3 141.8 256"/><polygon class="cls-2" points="137.5 253.5 137.7 253.4 139.8 254.7 139.7 254.8 137.5 253.5"/><polygon class="cls-2" points="134.2 251.4 135.1 250.9 135.3 251 134.4 251.6 134.2 251.7 133.1 252.3 133 252.2 134.1 251.6 134.2 251.4"/><polygon class="cls-2" points="134.2 251.7 134.4 251.6 135.5 252.2 135.3 252.3 134.2 251.7"/><polygon class="cls-2" points="133.2 251 133.3 250.9 134.2 251.4 134.1 251.6 133.2 251"/><polygon class="cls-2" points="128.8 248.5 129 248.4 131.2 249.7 131 249.8 128.8 248.5"/><polygon class="cls-2" points="124.5 246 124.7 245.9 126.8 247.2 126.7 247.3 124.5 246"/><g class="cls-1"><polygon class="cls-2" points="120.2 243.5 120.3 243.4 122 244.4 121.9 244.5 120.2 243.5"/><polygon class="cls-2" points="122 244.6 122.2 244.5 122.5 244.7 122.3 244.8 122 244.6"/><polygon class="cls-2" points="122 244.4 122.9 243.9 123.1 244 122.2 244.5 122 244.6 120.9 245.2 120.8 245.1 121.9 244.5 122 244.4"/></g><polygon class="cls-2" points="115.8 241 116 240.9 118.2 242.2 118 242.3 115.8 241"/><polygon class="cls-2" points="111.5 238.5 111.7 238.4 113.8 239.7 113.7 239.8 111.5 238.5"/><polygon class="cls-2" points="107.1 236 107.3 235.9 109.5 237.2 109.3 237.3 107.1 236"/><polygon class="cls-2" points="102.8 233.5 103 233.4 105.2 234.7 105 234.8 102.8 233.5"/><polygon class="cls-2" points="98.5 231 98.6 230.9 100.8 232.2 100.6 232.3 98.5 231"/><polygon class="cls-2" points="94.1 228.5 94.3 228.4 96.5 229.7 96.3 229.8 94.1 228.5"/><polygon class="cls-2" points="89.8 226 90 225.9 92.2 227.1 92 227.3 89.8 226"/><polygon class="cls-2" points="85.5 223.5 85.6 223.4 87.8 224.6 87.6 224.7 85.5 223.5"/><polygon class="cls-2" points="81.1 221 81.3 220.9 83.5 222.1 83.3 222.2 81.1 221"/><polygon class="cls-2" points="76.8 218.5 77 218.4 79.1 219.6 79 219.7 76.8 218.5"/><g class="cls-1"><polygon class="cls-2" points="72.5 216 72.6 215.9 73.2 216.2 73 216.3 72.5 216"/><polygon class="cls-2" points="73.2 216.2 74.1 215.7 74.3 215.8 73.4 216.3 73.2 216.4 72.1 217.1 72 217 73 216.3 73.2 216.2"/></g><polygon class="cls-2" points="73.2 216.4 73.4 216.3 74.8 217.1 74.6 217.2 73.2 216.4"/><polygon class="cls-2" points="68.1 213.5 68.3 213.4 70.5 214.6 70.3 214.7 68.1 213.5"/><polygon class="cls-2" points="63.8 211 64 210.9 66.1 212.1 66 212.2 63.8 211"/><polygon class="cls-2" points="59.4 208.5 59.6 208.4 61 209.2 60.8 209.3 59.4 208.5"/><polygon class="cls-2" points="61 209.2 61.9 208.7 62.1 208.8 61.2 209.3 61 209.4 59.9 210 59.8 209.9 60.8 209.3 61 209.2"/><polygon class="cls-2" points="61 209.4 61.2 209.3 61.8 209.6 61.6 209.7 61 209.4"/><polygon class="cls-2" points="55.1 206 55.3 205.9 57.5 207.1 57.3 207.2 55.1 206"/><polygon class="cls-2" points="50.8 203.5 51 203.4 53.1 204.6 52.9 204.7 50.8 203.5"/><polygon class="cls-2" points="46.4 201 46.6 200.9 48.8 202.1 48.6 202.2 46.4 201"/><polygon class="cls-2" points="42.1 198.5 42.3 198.4 44.5 199.6 44.3 199.7 42.1 198.5"/><polygon class="cls-2" points="37.8 196 37.9 195.9 40.1 197.1 39.9 197.2 37.8 196"/><polygon class="cls-2" points="33.4 193.5 33.6 193.4 35.8 194.6 35.6 194.7 33.4 193.5"/><polygon class="cls-2" points="29.1 191 29.3 190.8 31.4 192.1 31.3 192.2 29.1 191"/><polygon class="cls-2" points="158.7 265.6 158.6 265.7 158.5 265.6 157 264.8 157.2 264.7 158.6 265.5 158.7 265.6"/><polygon class="cls-2" points="38.2 182 38 182.1 36.5 181.2 36.5 181.2 36.6 181.1 36.7 181.1 38.2 182"/><polygon class="cls-2" points="167.1 256.4 167.7 256.7 167.5 256.8 167 256.5 167.1 256.4"/><polygon class="cls-2" points="162.6 254 162.8 253.9 165 255.2 164.8 255.3 162.6 254"/><polygon class="cls-2" points="158.3 251.5 158.5 251.4 158.6 251.4 158.4 251.6 158.3 251.5"/><polygon class="cls-2" points="158.6 251.4 160.2 250.5 160.4 250.6 158.7 251.6 158.6 251.7 158.3 251.8 158.1 251.7 158.4 251.6 158.6 251.4"/><polygon class="cls-2" points="158.6 251.7 158.7 251.6 160.6 252.7 160.5 252.8 158.6 251.7"/><polygon class="cls-2" points="154 249 154.1 248.9 156.3 250.1 156.1 250.3 154 249"/><polygon class="cls-2" points="149.6 246.5 149.8 246.4 152 247.6 151.8 247.7 149.6 246.5"/><polygon class="cls-2" points="145.3 244 145.5 243.9 146.4 244.4 146.2 244.5 145.3 244"/><g class="cls-1"><polygon class="cls-2" points="146.4 244.4 148 243.4 148.2 243.5 146.5 244.5 146.4 244.6 146.1 244.8 145.9 244.7 146.2 244.5 146.4 244.4"/><polygon class="cls-2" points="146.4 244.6 146.5 244.5 147.6 245.1 147.5 245.2 146.4 244.6"/></g><polygon class="cls-2" points="141 241.5 141.1 241.4 143.3 242.6 143.1 242.7 141 241.5"/><polygon class="cls-2" points="136.6 239 136.8 238.9 139 240.1 138.8 240.2 136.6 239"/><polygon class="cls-2" points="134.2 237.6 134.3 237.5 134.6 237.6 134.4 237.7 134.2 237.6"/><polygon class="cls-2" points="134.2 237.4 135.8 236.4 136 236.5 134.3 237.5 134.2 237.6 133.9 237.7 133.7 237.6 134 237.5 134.2 237.4"/><polygon class="cls-2" points="132.3 236.5 132.5 236.4 134.2 237.4 134 237.5 132.3 236.5"/><polygon class="cls-2" points="127.9 234 128.1 233.9 130.3 235.1 130.1 235.2 127.9 234"/><polygon class="cls-2" points="123.6 231.5 123.8 231.4 126 232.6 125.8 232.7 123.6 231.5"/><polygon class="cls-2" points="119.3 229 119.4 228.9 121.6 230.1 121.4 230.2 119.3 229"/><polygon class="cls-2" points="114.9 226.5 115.1 226.4 117.3 227.6 117.1 227.7 114.9 226.5"/><polygon class="cls-2" points="110.6 224 110.8 223.9 112.9 225.1 112.8 225.2 110.6 224"/><polygon class="cls-2" points="106.3 221.5 106.4 221.4 108.6 222.6 108.4 222.7 106.3 221.5"/><polygon class="cls-2" points="101.9 219 102.1 218.9 104.3 220.1 104.1 220.2 101.9 219"/><polygon class="cls-2" points="97.1 216.5 99.2 215.2 99.4 215.3 97.3 216.6 97.1 216.5"/><polygon class="cls-2" points="97.6 216.5 97.8 216.3 99.9 217.6 99.8 217.7 97.6 216.5"/><polygon class="cls-2" points="93.3 213.9 93.4 213.8 95.6 215.1 95.4 215.2 93.3 213.9"/><polygon class="cls-2" points="88.9 211.4 89.1 211.3 91.3 212.6 91.1 212.7 88.9 211.4"/><polygon class="cls-2" points="85.3 209.2 87 208.2 87.2 208.3 85.5 209.3 85.3 209.4 85.1 209.6 84.9 209.4 85.2 209.3 85.3 209.2"/><polygon class="cls-2" points="85.3 209.4 85.5 209.3 86.9 210.1 86.7 210.2 85.3 209.4"/><polygon class="cls-2" points="84.6 208.9 84.8 208.8 85.3 209.2 85.2 209.3 84.6 208.9"/><polygon class="cls-2" points="80.2 206.4 80.4 206.3 82.6 207.6 82.4 207.7 80.2 206.4"/><polygon class="cls-2" points="75.9 203.9 76.1 203.8 78.3 205.1 78.1 205.2 75.9 203.9"/><polygon class="cls-2" points="71.6 201.4 71.7 201.3 73.1 202.1 73 202.2 71.6 201.4"/><polygon class="cls-2" points="73.1 202.1 74.8 201.2 75 201.3 73.3 202.2 73.1 202.3 72.9 202.5 72.7 202.4 73 202.2 73.1 202.1"/><polygon class="cls-2" points="73.1 202.3 73.3 202.2 73.9 202.6 73.7 202.7 73.1 202.3"/><polygon class="cls-2" points="67.2 198.9 67.4 198.8 69.6 200.1 69.4 200.2 67.2 198.9"/><polygon class="cls-2" points="62.9 196.4 63.1 196.3 65.2 197.6 65.1 197.7 62.9 196.4"/><polygon class="cls-2" points="58.6 193.9 58.7 193.8 60.9 195.1 60.7 195.2 58.6 193.9"/><polygon class="cls-2" points="54.2 191.4 54.4 191.3 56.6 192.6 56.4 192.7 54.2 191.4"/><polygon class="cls-2" points="49.9 188.9 50.1 188.8 52.2 190.1 52.1 190.2 49.9 188.9"/><polygon class="cls-2" points="45.6 186.4 45.7 186.3 47.9 187.6 47.7 187.7 45.6 186.4"/><polygon class="cls-2" points="41.2 183.9 41.4 183.8 43.6 185.1 43.4 185.2 41.2 183.9"/><polygon class="cls-2" points="170.9 258.5 170.7 258.6 170.6 258.6 169.1 257.7 169.3 257.6 170.8 258.5 170.9 258.5"/><polygon class="cls-2" points="50.3 174.9 50.1 175 48.7 174.2 48.6 174.1 48.8 174 48.8 174.1 50.3 174.9"/><polygon class="cls-2" points="179.3 249.4 179.8 249.7 179.6 249.8 179.1 249.5 179.3 249.4"/><polygon class="cls-2" points="174.8 247 174.9 246.9 177.1 248.1 176.9 248.2 174.8 247"/><polygon class="cls-2" points="170.4 244.5 170.6 244.4 172.8 245.6 172.6 245.7 170.4 244.5"/><polygon class="cls-2" points="166.1 242 166.3 241.8 168.4 243.1 168.3 243.2 166.1 242"/><polygon class="cls-2" points="161.7 239.4 161.9 239.3 164.1 240.6 163.9 240.7 161.7 239.4"/><polygon class="cls-2" points="157.4 236.9 157.6 236.8 159.8 238.1 159.6 238.2 157.4 236.9"/><polygon class="cls-2" points="153.1 234.4 153.3 234.3 155.4 235.6 155.2 235.7 153.1 234.4"/><polygon class="cls-2" points="148.7 231.9 148.9 231.8 151.1 233.1 150.9 233.2 148.7 231.9"/><polygon class="cls-2" points="144.4 229.4 144.6 229.3 146.7 230.6 146.6 230.7 144.4 229.4"/><polygon class="cls-2" points="140.1 226.9 140.2 226.8 142.4 228.1 142.2 228.2 140.1 226.9"/><polygon class="cls-2" points="135.7 224.4 135.9 224.3 138.1 225.6 137.9 225.7 135.7 224.4"/><polygon class="cls-2" points="131.4 221.9 131.6 221.8 133.7 223.1 133.6 223.2 131.4 221.9"/><polygon class="cls-2" points="127.1 219.4 127.2 219.3 129.4 220.6 129.2 220.7 127.1 219.4"/><polygon class="cls-2" points="122.7 216.9 122.9 216.8 125.1 218.1 124.9 218.2 122.7 216.9"/><polygon class="cls-2" points="118.4 214.4 118.6 214.3 120.7 215.6 120.6 215.7 118.4 214.4"/><polygon class="cls-2" points="114 211.9 114.2 211.8 116.4 213.1 116.2 213.2 114 211.9"/><polygon class="cls-2" points="109.7 209.4 109.9 209.3 112.1 210.6 111.9 210.7 109.7 209.4"/><polygon class="cls-2" points="105.4 206.9 105.6 206.8 107.7 208.1 107.5 208.2 105.4 206.9"/><polygon class="cls-2" points="101 204.4 101.2 204.3 103.4 205.5 103.2 205.7 101 204.4"/><polygon class="cls-2" points="97.8 201.9 100 200.7 100.1 200.8 98 202 97.8 201.9"/><polygon class="cls-2" points="96.7 201.9 96.9 201.8 99 203 98.9 203.1 96.7 201.9"/><polygon class="cls-2" points="92.4 199.4 92.5 199.3 94.7 200.5 94.5 200.6 92.4 199.4"/><polygon class="cls-2" points="88 196.9 88.2 196.8 90.4 198 90.2 198.1 88 196.9"/><polygon class="cls-2" points="85.6 194.9 87.8 193.6 87.9 193.7 85.8 195 85.6 194.9"/><polygon class="cls-2" points="83.7 194.4 83.9 194.3 86 195.5 85.9 195.6 83.7 194.4"/><polygon class="cls-2" points="79.4 191.9 79.5 191.8 81.7 193 81.5 193.1 79.4 191.9"/><polygon class="cls-2" points="75 189.4 75.2 189.3 77.4 190.5 77.2 190.6 75 189.4"/><polygon class="cls-2" points="70.7 186.9 70.9 186.8 73 188 72.9 188.1 70.7 186.9"/><polygon class="cls-2" points="66.4 184.4 66.5 184.3 68.7 185.5 68.5 185.6 66.4 184.4"/><polygon class="cls-2" points="62 181.9 62.2 181.8 64.4 183 64.2 183.1 62 181.9"/><polygon class="cls-2" points="57.7 179.4 57.9 179.3 60 180.5 59.8 180.6 57.7 179.4"/><polygon class="cls-2" points="53.3 176.9 53.5 176.8 55.7 178 55.5 178.1 53.3 176.9"/><polygon class="cls-2" points="183 251.5 182.8 251.6 181.2 250.7 181.4 250.6 183 251.5"/><polygon class="cls-2" points="62.4 167.9 62.3 168 60.7 167.1 60.9 167 62.4 167.9"/><polygon class="cls-2" points="191.4 242.3 191.9 242.6 191.8 242.7 191.2 242.4 191.4 242.3"/><polygon class="cls-2" points="186.9 239.9 187.1 239.8 189.2 241.1 189 241.2 186.9 239.9"/><polygon class="cls-2" points="182.5 237.4 182.7 237.3 184.9 238.6 184.7 238.7 182.5 237.4"/><polygon class="cls-2" points="178.2 234.9 178.4 234.8 180.6 236.1 180.4 236.2 178.2 234.9"/><polygon class="cls-2" points="173.9 232.4 174 232.3 176.2 233.6 176 233.7 173.9 232.4"/><polygon class="cls-2" points="167.4 232.2 169.6 230.9 169.8 231 167.6 232.3 167.4 232.2"/><polygon class="cls-2" points="169.5 229.9 169.7 229.8 171.9 231 171.7 231.2 169.5 229.9"/><polygon class="cls-2" points="165.2 227.4 165.4 227.3 167.5 228.5 167.4 228.6 165.2 227.4"/><polygon class="cls-2" points="160.9 224.9 161 224.8 163.2 226 163 226.1 160.9 224.9"/><polygon class="cls-2" points="156.5 222.4 156.7 222.3 158.9 223.5 158.7 223.6 156.5 222.4"/><polygon class="cls-2" points="152.2 219.9 152.4 219.8 154.5 221 154.4 221.1 152.2 219.9"/><polygon class="cls-2" points="147.8 217.4 148 217.3 150.2 218.5 150 218.6 147.8 217.4"/><polygon class="cls-2" points="143.5 214.9 143.7 214.8 145.9 216 145.7 216.1 143.5 214.9"/><polygon class="cls-2" points="139.2 212.4 139.4 212.3 141.5 213.5 141.3 213.6 139.2 212.4"/><polygon class="cls-2" points="134.8 209.9 135 209.8 137.2 211 137 211.1 134.8 209.9"/><polygon class="cls-2" points="130.5 207.4 130.7 207.3 132.8 208.5 132.7 208.6 130.5 207.4"/><polygon class="cls-2" points="126.2 204.9 126.3 204.8 128.5 206 128.3 206.1 126.2 204.9"/><polygon class="cls-2" points="121.8 202.4 122 202.3 124.2 203.5 124 203.6 121.8 202.4"/><polygon class="cls-2" points="117.5 199.9 117.7 199.8 119.8 201 119.7 201.1 117.5 199.9"/><polygon class="cls-2" points="113.2 197.4 113.3 197.3 115.5 198.5 115.3 198.6 113.2 197.4"/><polygon class="cls-2" points="108.8 194.9 109 194.8 111.2 196 111 196.1 108.8 194.9"/><polygon class="cls-2" points="104.5 192.3 104.7 192.2 106.8 193.5 106.7 193.6 104.5 192.3"/><polygon class="cls-2" points="100.1 189.8 100.3 189.7 102.5 191 102.3 191.1 100.1 189.8"/><polygon class="cls-2" points="95.8 187.3 96 187.2 98.2 188.5 98 188.6 95.8 187.3"/><polygon class="cls-2" points="91.5 184.8 91.7 184.7 93.8 186 93.7 186.1 91.5 184.8"/><polygon class="cls-2" points="87.1 182.3 87.3 182.2 89.5 183.5 89.3 183.6 87.1 182.3"/><polygon class="cls-2" points="82.8 179.8 83 179.7 85.2 181 85 181.1 82.8 179.8"/><polygon class="cls-2" points="78.5 177.3 78.7 177.2 80.8 178.5 80.6 178.6 78.5 177.3"/><polygon class="cls-2" points="74.1 174.8 74.3 174.7 76.5 176 76.3 176.1 74.1 174.8"/><polygon class="cls-2" points="69.8 172.3 70 172.2 72.1 173.5 72 173.6 69.8 172.3"/><polygon class="cls-2" points="65.5 169.8 65.6 169.7 67.8 171 67.6 171.1 65.5 169.8"/><polygon class="cls-2" points="195.1 244.5 194.9 244.6 193.3 243.7 193.5 243.5 195.1 244.5"/><polygon class="cls-2" points="74.6 160.8 74.4 160.9 72.8 160 73 159.9 74.6 160.8"/><polygon class="cls-2" points="203.5 235.3 204 235.6 203.9 235.7 203.3 235.4 203.5 235.3"/><polygon class="cls-2" points="199 232.9 199.2 232.8 201.3 234 201.2 234.1 199 232.9"/><polygon class="cls-2" points="194.7 230.4 194.8 230.3 197 231.5 196.8 231.6 194.7 230.4"/><polygon class="cls-2" points="190.3 227.9 190.5 227.8 192.7 229 192.5 229.1 190.3 227.9"/><polygon class="cls-2" points="186 225.4 186.2 225.3 188.3 226.5 188.2 226.6 186 225.4"/><polygon class="cls-2" points="180.4 224.6 182.5 223.4 182.7 223.5 180.5 224.7 180.4 224.6"/><polygon class="cls-2" points="181.7 222.9 181.8 222.8 184 224 183.8 224.1 181.7 222.9"/><polygon class="cls-2" points="177.3 220.4 177.5 220.3 179.7 221.5 179.5 221.6 177.3 220.4"/><polygon class="cls-2" points="173 217.8 173.2 217.7 175.3 219 175.2 219.1 173 217.8"/><polygon class="cls-2" points="168.2 217.6 170.3 216.3 170.5 216.4 168.3 217.7 168.2 217.6"/><polygon class="cls-2" points="168.6 215.3 168.8 215.2 171 216.5 170.8 216.6 168.6 215.3"/><polygon class="cls-2" points="164.3 212.8 164.5 212.7 166.7 214 166.5 214.1 164.3 212.8"/><polygon class="cls-2" points="160 210.3 160.1 210.2 162.3 211.5 162.1 211.6 160 210.3"/><polygon class="cls-2" points="155.6 207.8 155.8 207.7 158 209 157.8 209.1 155.6 207.8"/><polygon class="cls-2" points="151.3 205.3 151.5 205.2 153.6 206.5 153.5 206.6 151.3 205.3"/><polygon class="cls-2" points="147 202.8 147.1 202.7 149.3 204 149.1 204.1 147 202.8"/><polygon class="cls-2" points="142.6 200.3 142.8 200.2 145 201.5 144.8 201.6 142.6 200.3"/><polygon class="cls-2" points="138.3 197.8 138.5 197.7 140.6 199 140.5 199.1 138.3 197.8"/><polygon class="cls-2" points="134 195.3 134.1 195.2 136.3 196.5 136.1 196.6 134 195.3"/><polygon class="cls-2" points="129.6 192.8 129.8 192.7 132 194 131.8 194.1 129.6 192.8"/><polygon class="cls-2" points="125.3 190.3 125.5 190.2 127.6 191.5 127.5 191.6 125.3 190.3"/><polygon class="cls-2" points="121 187.8 121.1 187.7 123.3 189 123.1 189.1 121 187.8"/><polygon class="cls-2" points="116.6 185.3 116.8 185.2 119 186.5 118.8 186.6 116.6 185.3"/><polygon class="cls-2" points="112.3 182.8 112.4 182.7 114.6 183.9 114.4 184.1 112.3 182.8"/><polygon class="cls-2" points="107.9 180.3 108.1 180.2 110.3 181.4 110.1 181.5 107.9 180.3"/><polygon class="cls-2" points="103.6 177.8 103.8 177.7 105.9 178.9 105.8 179 103.6 177.8"/><polygon class="cls-2" points="99.3 175.3 99.4 175.2 101.6 176.4 101.4 176.5 99.3 175.3"/><polygon class="cls-2" points="94.9 172.8 95.1 172.7 97.3 173.9 97.1 174 94.9 172.8"/><polygon class="cls-2" points="90.6 170.3 90.8 170.2 92.9 171.4 92.8 171.5 90.6 170.3"/><polygon class="cls-2" points="86.3 167.8 86.4 167.7 88.6 168.9 88.4 169 86.3 167.8"/><polygon class="cls-2" points="81.9 165.3 82.1 165.2 84.3 166.4 84.1 166.5 81.9 165.3"/><polygon class="cls-2" points="77.6 162.8 77.8 162.7 79.9 163.9 79.8 164 77.6 162.8"/><polygon class="cls-2" points="86.7 153.8 86.5 153.9 84.9 153 85.1 152.9 86.7 153.8"/><polygon class="cls-2" points="215.6 228.2 216.2 228.5 216 228.6 215.5 228.3 215.6 228.2"/><polygon class="cls-2" points="211.1 225.8 211.3 225.7 213.5 227 213.3 227.1 211.1 225.8"/><polygon class="cls-2" points="207.1 223.5 207.2 223.4 209.1 224.5 209 224.6 207.1 223.5"/><polygon class="cls-2" points="206.8 223.3 207 223.2 207.1 223.3 206.9 223.4 206.8 223.3"/><polygon class="cls-2" points="202.5 220.8 202.6 220.7 204.8 222 204.6 222.1 202.5 220.8"/><polygon class="cls-2" points="198.1 218.3 198.3 218.2 200.5 219.5 200.3 219.6 198.1 218.3"/><polygon class="cls-2" points="194.9 216.2 195.4 215.9 195.6 216 195 216.3 194.9 216.4 193.5 217.2 193.3 217.1 194.7 216.3 194.9 216.2"/><polygon class="cls-2" points="194.9 216.4 195 216.3 196.1 217 195.9 217.1 194.9 216.4"/><polygon class="cls-2" points="193.8 215.8 194 215.7 194.9 216.2 194.7 216.3 193.8 215.8"/><polygon class="cls-2" points="189.4 213.3 189.6 213.2 191.8 214.5 191.6 214.6 189.4 213.3"/><polygon class="cls-2" points="185.1 210.8 185.3 210.7 187.5 211.9 187.3 212.1 185.1 210.8"/><polygon class="cls-2" points="182.7 209.2 183.2 208.8 183.4 208.9 182.8 209.3 182.6 209.4 181.3 210.2 181.1 210.1 182.5 209.3 182.7 209.2"/><polygon class="cls-2" points="180.8 208.3 180.9 208.2 182.7 209.2 182.5 209.3 180.8 208.3"/><polygon class="cls-2" points="182.6 209.4 182.8 209.3 183.1 209.4 182.9 209.6 182.6 209.4"/><polygon class="cls-2" points="176.4 205.8 176.6 205.7 178.8 206.9 178.6 207 176.4 205.8"/><polygon class="cls-2" points="172.1 203.3 172.3 203.2 174.4 204.4 174.3 204.5 172.1 203.3"/><polygon class="cls-2" points="168.9 203 171 201.8 171.2 201.9 169.1 203.1 168.9 203"/><polygon class="cls-2" points="167.8 200.8 167.9 200.7 170.1 201.9 169.9 202 167.8 200.8"/><polygon class="cls-2" points="163.4 198.3 163.6 198.2 165.8 199.4 165.6 199.5 163.4 198.3"/><polygon class="cls-2" points="159.1 195.8 159.3 195.7 161.4 196.9 161.3 197 159.1 195.8"/><polygon class="cls-2" points="154.8 193.3 154.9 193.2 157.1 194.4 156.9 194.5 154.8 193.3"/><polygon class="cls-2" points="150.4 190.8 150.6 190.7 152.8 191.9 152.6 192 150.4 190.8"/><polygon class="cls-2" points="144.5 189 146.6 187.7 146.8 187.8 144.7 189.1 144.5 189"/><polygon class="cls-2" points="146.1 188.3 146.3 188.2 148.4 189.4 148.3 189.5 146.1 188.3"/><polygon class="cls-2" points="141.7 185.8 141.9 185.7 144.1 186.9 143.9 187 141.7 185.8"/><polygon class="cls-2" points="137.4 183.3 137.6 183.2 139.8 184.4 139.6 184.5 137.4 183.3"/><g class="cls-1"><polygon class="cls-2" points="133.1 180.8 133.3 180.7 133.8 181 133.7 181.1 133.1 180.8"/><polygon class="cls-2" points="133.8 181 134.4 180.7 134.6 180.8 134 181.1 133.8 181.2 132.5 182 132.3 181.9 133.7 181.1 133.8 181"/></g><polygon class="cls-2" points="133.8 181.2 134 181.1 135.4 181.9 135.2 182 133.8 181.2"/><polygon class="cls-2" points="128.7 178.3 128.9 178.2 131.1 179.4 130.9 179.5 128.7 178.3"/><polygon class="cls-2" points="124.4 175.8 124.6 175.6 126.7 176.9 126.6 177 124.4 175.8"/><polygon class="cls-2" points="121.6 174.2 121.8 174.1 122.4 174.4 122.2 174.5 121.6 174.2"/><polygon class="cls-2" points="121.6 174 122.2 173.6 122.4 173.7 121.8 174.1 121.6 174.2 120.3 175 120.1 174.9 121.5 174.1 121.6 174"/><polygon class="cls-2" points="120.1 173.2 120.2 173.1 121.6 174 121.5 174.1 120.1 173.2"/><polygon class="cls-2" points="115.7 170.7 115.9 170.6 118.1 171.9 117.9 172 115.7 170.7"/><polygon class="cls-2" points="111.4 168.2 111.6 168.1 113.7 169.4 113.6 169.5 111.4 168.2"/><polygon class="cls-2" points="107.1 165.7 107.2 165.6 109.4 166.9 109.2 167 107.1 165.7"/><polygon class="cls-2" points="102.7 163.2 102.9 163.1 105.1 164.4 104.9 164.5 102.7 163.2"/><polygon class="cls-2" points="98.4 160.7 98.6 160.6 100.7 161.9 100.6 162 98.4 160.7"/><polygon class="cls-2" points="94 158.2 94.2 158.1 96.4 159.4 96.2 159.5 94 158.2"/><polygon class="cls-2" points="89.7 155.7 89.9 155.6 92.1 156.9 91.9 157 89.7 155.7"/><polygon class="cls-2" points="227.8 221.2 228.3 221.5 228.1 221.6 227.6 221.3 227.8 221.2"/><polygon class="cls-2" points="223.2 218.8 223.4 218.7 225.6 219.9 225.4 220 223.2 218.8"/><polygon class="cls-2" points="219.2 216.4 219.4 216.3 221.3 217.4 221.1 217.5 219.2 216.4"/><polygon class="cls-2" points="218.9 216.3 219.1 216.2 219.2 216.2 219 216.3 218.9 216.3"/><polygon class="cls-2" points="214.6 213.8 214.8 213.7 216.9 214.9 216.7 215 214.6 213.8"/><polygon class="cls-2" points="210.2 211.3 210.4 211.2 212.6 212.4 212.4 212.5 210.2 211.3"/><polygon class="cls-2" points="207 209.4 207.2 209.3 208.2 209.9 208.1 210 207 209.4"/><polygon class="cls-2" points="207 209.2 208.4 208.4 208.5 208.5 207.2 209.3 207 209.4 206.4 209.7 206.2 209.6 206.8 209.3 207 209.2"/><polygon class="cls-2" points="205.9 208.8 206.1 208.7 207 209.2 206.8 209.3 205.9 208.8"/><polygon class="cls-2" points="201.6 206.3 201.7 206.2 203.9 207.4 203.7 207.5 201.6 206.3"/><polygon class="cls-2" points="197.2 203.8 197.4 203.7 199.6 204.9 199.4 205 197.2 203.8"/><polygon class="cls-2" points="194.8 202.3 194.9 202.2 195.2 202.4 195.1 202.5 194.8 202.3"/><polygon class="cls-2" points="194.8 202.1 196.2 201.3 196.3 201.4 194.9 202.2 194.8 202.3 194.2 202.7 194 202.6 194.6 202.2 194.8 202.1"/><polygon class="cls-2" points="192.9 201.3 193.1 201.2 194.8 202.1 194.6 202.2 192.9 201.3"/><polygon class="cls-2" points="188.6 198.8 188.7 198.6 190.9 199.9 190.7 200 188.6 198.8"/><polygon class="cls-2" points="184.2 196.2 184.4 196.1 186.6 197.4 186.4 197.5 184.2 196.2"/><polygon class="cls-2" points="179.9 193.7 180.1 193.6 182.2 194.9 182.1 195 179.9 193.7"/><polygon class="cls-2" points="175.6 191.2 175.7 191.1 177.9 192.4 177.7 192.5 175.6 191.2"/><polygon class="cls-2" points="171.2 188.7 171.4 188.6 173.6 189.9 173.4 190 171.2 188.7"/><polygon class="cls-2" points="166.9 186.2 167.1 186.1 169.2 187.4 169 187.5 166.9 186.2"/><polygon class="cls-2" points="162.5 183.7 162.7 183.6 164.9 184.9 164.7 185 162.5 183.7"/><polygon class="cls-2" points="157.4 181.4 159.6 180.2 159.7 180.3 157.6 181.5 157.4 181.4"/><polygon class="cls-2" points="158.2 181.2 158.4 181.1 160.6 182.4 160.4 182.5 158.2 181.2"/><polygon class="cls-2" points="153.9 178.7 154 178.6 156.2 179.9 156 180 153.9 178.7"/><polygon class="cls-2" points="149.5 176.2 149.7 176.1 151.9 177.4 151.7 177.5 149.5 176.2"/><polygon class="cls-2" points="146 174.2 146.1 174.1 147.5 174.9 147.4 175 146 174.2"/><polygon class="cls-2" points="146 174 147.4 173.1 147.5 173.2 146.1 174.1 146 174.2 145.4 174.5 145.2 174.4 145.8 174.1 146 174"/><polygon class="cls-2" points="145.2 173.7 145.4 173.6 146 174 145.8 174.1 145.2 173.7"/><polygon class="cls-2" points="140.9 171.2 141 171.1 143.2 172.4 143 172.5 140.9 171.2"/><polygon class="cls-2" points="136.5 168.7 136.7 168.6 138.9 169.9 138.7 170 136.5 168.7"/><polygon class="cls-2" points="132.2 166.2 132.4 166.1 133.8 166.9 133.6 167 132.2 166.2"/><g class="cls-1"><polygon class="cls-2" points="133.8 167.1 133.9 167 134.5 167.4 134.4 167.5 133.8 167.1"/><polygon class="cls-2" points="133.8 166.9 135.2 166.1 135.3 166.2 133.9 167 133.8 167.1 133.2 167.5 133 167.4 133.6 167 133.8 166.9"/></g><polygon class="cls-2" points="127.8 163.7 128 163.6 130.2 164.9 130 165 127.8 163.7"/><polygon class="cls-2" points="123.5 161.2 123.7 161.1 125.9 162.3 125.7 162.4 123.5 161.2"/><g class="cls-1"><polygon class="cls-2" points="119.2 158.7 119.4 158.6 121.5 159.8 121.3 159.9 119.2 158.7"/><polygon class="cls-2" points="120.8 160.3 123 159.1 123.1 159.2 121 160.4 120.8 160.3"/></g><polygon class="cls-2" points="114.8 156.2 115 156.1 117.2 157.3 117 157.4 114.8 156.2"/><polygon class="cls-2" points="110.5 153.7 110.7 153.6 112.9 154.8 112.7 154.9 110.5 153.7"/><polygon class="cls-2" points="106.2 151.2 106.3 151.1 108.5 152.3 108.3 152.4 106.2 151.2"/><polygon class="cls-2" points="101.8 148.7 102 148.6 104.2 149.8 104 149.9 101.8 148.7"/><polygon class="cls-2" points="239.9 214.1 240.4 214.4 240.2 214.5 239.7 214.2 239.9 214.1"/><polygon class="cls-2" points="235.4 211.7 235.5 211.6 237.7 212.9 237.5 213 235.4 211.7"/><g class="cls-1"><polygon class="cls-2" points="231.3 209.2 233.5 207.9 233.7 208 231.5 209.3 231.3 209.2"/><polygon class="cls-2" points="231 209.2 231.2 209.1 233.4 210.4 233.2 210.5 231 209.2"/></g><polygon class="cls-2" points="226.7 206.7 226.9 206.6 229 207.9 228.9 208 226.7 206.7"/><polygon class="cls-2" points="222.4 204.2 222.5 204.1 224.7 205.4 224.5 205.5 222.4 204.2"/><polygon class="cls-2" points="219.1 202.1 221.3 200.9 221.5 201 219.3 202.2 219.1 202.1"/><polygon class="cls-2" points="218 201.7 218.2 201.6 220.4 202.9 220.2 203 218 201.7"/><polygon class="cls-2" points="213.7 199.2 213.9 199.1 216 200.4 215.9 200.5 213.7 199.2"/><polygon class="cls-2" points="209.3 196.7 209.5 196.6 211.7 197.9 211.5 198 209.3 196.7"/><polygon class="cls-2" points="205 194.2 205.2 194.1 207.4 195.4 207.2 195.5 205 194.2"/><polygon class="cls-2" points="200.7 191.7 200.9 191.6 203 192.9 202.8 193 200.7 191.7"/><polygon class="cls-2" points="196.3 189.2 196.5 189.1 198.7 190.4 198.5 190.5 196.3 189.2"/><polygon class="cls-2" points="192 186.7 192.2 186.6 194.3 187.8 194.2 187.9 192 186.7"/><polygon class="cls-2" points="187.7 184.2 187.8 184.1 190 185.3 189.8 185.4 187.7 184.2"/><polygon class="cls-2" points="183.3 181.7 183.5 181.6 185.7 182.8 185.5 182.9 183.3 181.7"/><polygon class="cls-2" points="179 179.2 179.2 179.1 181.3 180.3 181.2 180.4 179 179.2"/><polygon class="cls-2" points="174.7 176.7 174.8 176.6 177 177.8 176.8 177.9 174.7 176.7"/><polygon class="cls-2" points="170.3 174.2 170.5 174.1 172.7 175.3 172.5 175.4 170.3 174.2"/><polygon class="cls-2" points="166 171.7 166.2 171.6 168.3 172.8 168.2 172.9 166 171.7"/><polygon class="cls-2" points="161.7 169.2 161.8 169.1 164 170.3 163.8 170.4 161.7 169.2"/><polygon class="cls-2" points="158.1 166.9 160.3 165.6 160.5 165.7 158.3 167 158.1 166.9"/><polygon class="cls-2" points="157.3 166.7 157.5 166.6 159.7 167.8 159.5 167.9 157.3 166.7"/><polygon class="cls-2" points="153 164.2 153.2 164.1 155.3 165.3 155.1 165.4 153 164.2"/><polygon class="cls-2" points="148.6 161.7 148.8 161.6 151 162.8 150.8 162.9 148.6 161.7"/><polygon class="cls-2" points="145.9 159.8 148.1 158.6 148.3 158.7 146.1 159.9 145.9 159.8"/><polygon class="cls-2" points="144.3 159.2 144.5 159.1 146.7 160.3 146.5 160.4 144.3 159.2"/><polygon class="cls-2" points="140 156.7 140.2 156.6 142.3 157.8 142.1 157.9 140 156.7"/><polygon class="cls-2" points="135.6 154.2 135.8 154.1 138 155.3 137.8 155.4 135.6 154.2"/><polygon class="cls-2" points="131.3 151.7 131.5 151.5 133.6 152.8 133.5 152.9 131.3 151.7"/><polygon class="cls-2" points="127 149.1 127.1 149 129.3 150.3 129.1 150.4 127 149.1"/><polygon class="cls-2" points="122.6 146.6 122.8 146.5 125 147.8 124.8 147.9 122.6 146.6"/><polygon class="cls-2" points="118.3 144.1 118.5 144 120.6 145.3 120.5 145.4 118.3 144.1"/><polygon class="cls-2" points="114 141.6 114.1 141.5 116.3 142.8 116.1 142.9 114 141.6"/><polygon class="cls-2" points="123.1 132.6 122.9 132.7 121.4 131.9 121.3 131.8 121.5 131.7 121.6 131.8 123.1 132.6"/><polygon class="cls-2" points="252 207.1 252.5 207.4 252.4 207.5 251.8 207.2 252 207.1"/><polygon class="cls-2" points="247.5 204.7 247.7 204.6 249.8 205.8 249.7 205.9 247.5 204.7"/><polygon class="cls-2" points="243.2 202.2 243.3 202.1 245.5 203.3 245.3 203.4 243.2 202.2"/><polygon class="cls-2" points="238.8 199.7 239 199.6 241.2 200.8 241 200.9 238.8 199.7"/><polygon class="cls-2" points="234.5 197.2 234.7 197.1 236.8 198.3 236.6 198.4 234.5 197.2"/><polygon class="cls-2" points="232.1 194.6 234.2 193.4 234.4 193.5 232.2 194.7 232.1 194.6"/><polygon class="cls-2" points="230.1 194.7 230.3 194.6 232.5 195.8 232.3 195.9 230.1 194.7"/><polygon class="cls-2" points="225.8 192.2 226 192.1 228.2 193.3 228 193.4 225.8 192.2"/><polygon class="cls-2" points="221.5 189.7 221.6 189.6 223.8 190.8 223.6 190.9 221.5 189.7"/><polygon class="cls-2" points="217.1 187.2 217.3 187.1 219.5 188.3 219.3 188.4 217.1 187.2"/><polygon class="cls-2" points="212.8 184.7 213 184.6 215.1 185.8 215 185.9 212.8 184.7"/><polygon class="cls-2" points="208.5 182.2 208.6 182.1 210.8 183.3 210.6 183.4 208.5 182.2"/><polygon class="cls-2" points="204.1 179.7 204.3 179.6 206.5 180.8 206.3 180.9 204.1 179.7"/><polygon class="cls-2" points="199.8 177.2 200 177 202.1 178.3 202 178.4 199.8 177.2"/><polygon class="cls-2" points="195.5 174.6 195.6 174.5 197.8 175.8 197.6 175.9 195.5 174.6"/><polygon class="cls-2" points="191.1 172.1 191.3 172 193.5 173.3 193.3 173.4 191.1 172.1"/><polygon class="cls-2" points="186.8 169.6 187 169.5 189.1 170.8 189 170.9 186.8 169.6"/><polygon class="cls-2" points="182.4 167.1 182.6 167 184.8 168.3 184.6 168.4 182.4 167.1"/><polygon class="cls-2" points="178.1 164.6 178.3 164.5 180.5 165.8 180.3 165.9 178.1 164.6"/><polygon class="cls-2" points="173.8 162.1 174 162 176.1 163.3 175.9 163.4 173.8 162.1"/><polygon class="cls-2" points="169.4 159.6 169.6 159.5 171.8 160.8 171.6 160.9 169.4 159.6"/><polygon class="cls-2" points="165.1 157.1 165.3 157 167.4 158.3 167.3 158.4 165.1 157.1"/><polygon class="cls-2" points="160.8 154.6 160.9 154.5 163.1 155.8 162.9 155.9 160.8 154.6"/><polygon class="cls-2" points="156.4 152.1 156.6 152 158.8 153.3 158.6 153.4 156.4 152.1"/><polygon class="cls-2" points="152.1 149.6 152.3 149.5 154.4 150.8 154.3 150.9 152.1 149.6"/><polygon class="cls-2" points="147.8 147.1 147.9 147 150.1 148.3 149.9 148.4 147.8 147.1"/><polygon class="cls-2" points="143.4 144.6 143.6 144.5 145.8 145.8 145.6 145.9 143.4 144.6"/><polygon class="cls-2" points="139.1 142.1 139.3 142 141.4 143.3 141.3 143.4 139.1 142.1"/><polygon class="cls-2" points="134.7 139.6 134.9 139.5 137.1 140.7 136.9 140.9 134.7 139.6"/><polygon class="cls-2" points="130.4 137.1 130.6 137 132.8 138.2 132.6 138.3 130.4 137.1"/><polygon class="cls-2" points="126.1 134.6 126.3 134.5 128.4 135.7 128.2 135.8 126.1 134.6"/><polygon class="cls-2" points="255.7 209.2 255.5 209.3 254 208.4 254.1 208.3 255.7 209.2"/><polygon class="cls-2" points="250.7 197.9 250.9 198 248.7 199.2 248.6 199.1 250.7 197.9"/><polygon class="cls-2" points="244.3 201.6 246.4 200.4 246.6 200.5 244.4 201.8 244.3 201.6"/><polygon class="cls-2" points="239.9 204.2 242.1 202.9 242.3 203 240.1 204.3 239.9 204.2"/><polygon class="cls-2" points="235.6 206.7 237.8 205.4 238 205.5 235.8 206.8 235.6 206.7"/><polygon class="cls-2" points="227 211.7 229.2 210.4 229.4 210.5 227.2 211.8 227 211.7"/><polygon class="cls-2" points="222.7 214.2 224.9 212.9 225.1 213 222.9 214.3 222.7 214.2"/><polygon class="cls-2" points="219.2 216.2 220.6 215.4 220.7 215.5 219.4 216.3 219.2 216.4 218.6 216.8 218.4 216.7 219 216.3 219.2 216.2"/><polygon class="cls-2" points="214.1 219.2 216.3 217.9 216.4 218 214.3 219.3 214.1 219.2"/><polygon class="cls-2" points="209.8 221.7 211.9 220.4 212.1 220.5 210 221.8 209.8 221.7"/><polygon class="cls-2" points="207.1 223.3 207.6 222.9 207.8 223 207.2 223.4 207.1 223.5 205.7 224.3 205.5 224.2 206.9 223.4 207.1 223.3"/><polygon class="cls-2" points="201.2 226.7 203.3 225.4 203.5 225.5 201.4 226.8 201.2 226.7"/><polygon class="cls-2" points="196.9 229.2 199 227.9 199.2 228 197 229.3 196.9 229.2"/><polygon class="cls-2" points="192.6 231.7 194.7 230.4 194.9 230.5 192.7 231.8 192.6 231.7"/><polygon class="cls-2" points="188.3 234.2 190.4 232.9 190.6 233 188.4 234.3 188.3 234.2"/><polygon class="cls-2" points="183.9 236.7 186.1 235.4 186.3 235.6 184.1 236.8 183.9 236.7"/><polygon class="cls-2" points="179.6 239.2 181.8 237.9 182 238.1 179.8 239.3 179.6 239.2"/><polygon class="cls-2" points="175.3 241.7 177.5 240.5 177.7 240.6 175.5 241.8 175.3 241.7"/><polygon class="cls-2" points="171 244.2 173.2 243 173.4 243.1 171.2 244.3 171 244.2"/><polygon class="cls-2" points="166.7 246.7 168.9 245.5 169 245.6 166.9 246.8 166.7 246.7"/><polygon class="cls-2" points="162.4 249.2 164.6 248 164.7 248.1 162.6 249.3 162.4 249.2"/><polygon class="cls-2" points="153.8 254.2 155.9 253 156.1 253.1 154 254.3 153.8 254.2"/><polygon class="cls-2" points="149.5 256.7 151.6 255.5 151.8 255.6 149.7 256.8 149.5 256.7"/><polygon class="cls-2" points="140.9 261.7 143 260.5 143.2 260.6 141 261.8 140.9 261.7"/><polygon class="cls-2" points="136.6 264.2 138.7 263 138.9 263.1 136.7 264.3 136.6 264.2"/><polygon class="cls-2" points="127.9 269.2 130.1 268 130.3 268.1 128.1 269.3 127.9 269.2"/><polygon class="cls-2" points="125.3 270.8 125.8 270.5 126 270.6 125.4 270.9 125.3 270.8"/><polygon class="cls-2" points="123.8 271.8 122.3 272.7 122.1 272.6 123.7 271.7 123.8 271.8"/><polygon class="cls-2" points="243.4 188.2 243.3 188.3 241.9 189.1 241.7 189 243.2 188.1 243.3 188.1 243.4 188.2"/><polygon class="cls-2" points="238.5 190.8 238.7 190.9 236.5 192.2 236.4 192.1 238.5 190.8"/><polygon class="cls-2" points="227.7 197.1 229.9 195.9 230.1 196 227.9 197.2 227.7 197.1"/><polygon class="cls-2" points="223.4 199.6 225.6 198.4 225.8 198.5 223.6 199.7 223.4 199.6"/><polygon class="cls-2" points="214.8 204.6 217 203.4 217.2 203.5 215 204.7 214.8 204.6"/><polygon class="cls-2" points="210.5 207.1 212.7 205.9 212.8 206 210.7 207.2 210.5 207.1"/><polygon class="cls-2" points="201.9 212.1 204.1 210.9 204.2 211 202.1 212.2 201.9 212.1"/><polygon class="cls-2" points="197.6 214.6 199.7 213.4 199.9 213.5 197.8 214.7 197.6 214.6"/><polygon class="cls-2" points="189 219.6 191.1 218.4 191.3 218.5 189.2 219.7 189 219.6"/><polygon class="cls-2" points="184.7 222.1 186.8 220.9 187 221 184.8 222.2 184.7 222.1"/><polygon class="cls-2" points="176.1 227.1 178.2 225.9 178.4 226 176.2 227.3 176.1 227.1"/><polygon class="cls-2" points="171.7 229.7 173.9 228.4 174.1 228.5 171.9 229.8 171.7 229.7"/><polygon class="cls-2" points="163.1 234.7 165.3 233.4 165.5 233.5 163.3 234.8 163.1 234.7"/><polygon class="cls-2" points="158.8 237.2 161 235.9 161.2 236 159 237.3 158.8 237.2"/><polygon class="cls-2" points="154.5 239.7 156.7 238.4 156.8 238.5 154.7 239.8 154.5 239.7"/><polygon class="cls-2" points="150.2 242.2 152.4 240.9 152.5 241 150.4 242.3 150.2 242.2"/><polygon class="cls-2" points="141.6 247.2 143.7 245.9 143.9 246 141.8 247.3 141.6 247.2"/><polygon class="cls-2" points="137.3 249.7 139.4 248.4 139.6 248.5 137.5 249.8 137.3 249.7"/><polygon class="cls-2" points="128.7 254.7 130.8 253.4 131 253.5 128.8 254.8 128.7 254.7"/><polygon class="cls-2" points="124.4 257.2 126.5 255.9 126.7 256 124.5 257.3 124.4 257.2"/><polygon class="cls-2" points="115.7 262.2 117.9 260.9 118.1 261.1 115.9 262.3 115.7 262.2"/><polygon class="cls-2" points="113.1 263.8 113.6 263.5 113.8 263.6 113.2 263.9 113.1 263.8"/><polygon class="cls-2" points="231.2 181.2 231.1 181.2 229.7 182.1 229.5 182 231 181.1 231.1 181.1 231.2 181.2"/><polygon class="cls-2" points="226.3 183.8 226.5 183.9 224.3 185.2 224.2 185.1 226.3 183.8"/><polygon class="cls-2" points="219.9 187.6 222 186.3 222.2 186.4 220 187.7 219.9 187.6"/><polygon class="cls-2" points="215.5 190.1 217.7 188.8 217.9 188.9 215.7 190.2 215.5 190.1"/><polygon class="cls-2" points="211.2 192.6 213.4 191.3 213.6 191.4 211.4 192.7 211.2 192.6"/><polygon class="cls-2" points="206.9 195.1 209.1 193.8 209.3 193.9 207.1 195.2 206.9 195.1"/><polygon class="cls-2" points="202.6 197.6 204.8 196.3 204.9 196.4 202.8 197.7 202.6 197.6"/><polygon class="cls-2" points="198.3 200.1 200.5 198.8 200.6 198.9 198.5 200.2 198.3 200.1"/><polygon class="cls-2" points="189.7 205.1 191.8 203.8 192 203.9 189.9 205.2 189.7 205.1"/><polygon class="cls-2" points="185.4 207.6 187.5 206.3 187.7 206.4 185.6 207.7 185.4 207.6"/><polygon class="cls-2" points="176.8 212.6 178.9 211.3 179.1 211.4 176.9 212.7 176.8 212.6"/><polygon class="cls-2" points="172.5 215.1 174.6 213.8 174.8 213.9 172.6 215.2 172.5 215.1"/><polygon class="cls-2" points="163.8 220.1 166 218.9 166.2 219 164 220.2 163.8 220.1"/><polygon class="cls-2" points="159.5 222.6 161.7 221.4 161.9 221.5 159.7 222.7 159.5 222.6"/><polygon class="cls-2" points="155.2 225.1 157.4 223.9 157.6 224 155.4 225.2 155.2 225.1"/><polygon class="cls-2" points="150.9 227.6 153.1 226.4 153.3 226.5 151.1 227.7 150.9 227.6"/><polygon class="cls-2" points="146.6 230.1 148.8 228.9 148.9 229 146.8 230.2 146.6 230.1"/><polygon class="cls-2" points="142.3 232.6 144.5 231.4 144.6 231.5 142.5 232.7 142.3 232.6"/><polygon class="cls-2" points="138 235.1 140.2 233.9 140.3 234 138.2 235.2 138 235.1"/><polygon class="cls-2" points="129.4 240.1 131.5 238.9 131.7 239 129.6 240.2 129.4 240.1"/><polygon class="cls-2" points="125.1 242.6 127.2 241.4 127.4 241.5 125.3 242.7 125.1 242.6"/><polygon class="cls-2" points="116.5 247.6 118.6 246.4 118.8 246.5 116.6 247.7 116.5 247.6"/><polygon class="cls-2" points="112.2 250.1 114.3 248.9 114.5 249 112.3 250.2 112.2 250.1"/><polygon class="cls-2" points="103.5 255.2 105.7 253.9 105.9 254 103.7 255.3 103.5 255.2"/><polygon class="cls-2" points="100.8 256.7 101.4 256.4 101.6 256.5 101 256.8 100.8 256.7"/><polygon class="cls-2" points="99.4 257.7 98 258.6 97.9 258.6 97.7 258.5 97.8 258.5 99.3 257.6 99.4 257.7"/><polygon class="cls-2" points="219 174.1 217.5 175 217.3 174.9 218.8 174 219 174.1"/><polygon class="cls-2" points="214.1 176.8 214.3 176.9 212.1 178.1 212 178 214.1 176.8"/><polygon class="cls-2" points="207.7 180.5 209.8 179.3 210 179.4 207.8 180.6 207.7 180.5"/><polygon class="cls-2" points="203.3 183 205.5 181.8 205.7 181.9 203.5 183.1 203.3 183"/><polygon class="cls-2" points="199 185.5 201.2 184.3 201.4 184.4 199.2 185.6 199 185.5"/><polygon class="cls-2" points="194.7 188 196.9 186.8 197.1 186.9 194.9 188.1 194.7 188"/><polygon class="cls-2" points="190.4 190.5 192.6 189.3 192.7 189.4 190.6 190.6 190.4 190.5"/><polygon class="cls-2" points="186.1 193 188.3 191.8 188.4 191.9 186.3 193.1 186.1 193"/><polygon class="cls-2" points="181.8 195.5 184 194.3 184.1 194.4 182 195.6 181.8 195.5"/><polygon class="cls-2" points="177.5 198 179.6 196.8 179.8 196.9 177.7 198.1 177.5 198"/><polygon class="cls-2" points="173.2 200.5 175.3 199.3 175.5 199.4 173.4 200.6 173.2 200.5"/><polygon class="cls-2" points="164.6 205.6 166.7 204.3 166.9 204.4 164.7 205.7 164.6 205.6"/><polygon class="cls-2" points="160.3 208.1 162.4 206.8 162.6 206.9 160.4 208.2 160.3 208.1"/><polygon class="cls-2" points="156 210.6 158.1 209.3 158.3 209.4 156.1 210.7 156 210.6"/><polygon class="cls-2" points="151.6 213.1 153.8 211.8 154 211.9 151.8 213.2 151.6 213.1"/><polygon class="cls-2" points="147.3 215.6 149.5 214.3 149.7 214.4 147.5 215.7 147.3 215.6"/><polygon class="cls-2" points="143 218.1 145.2 216.8 145.4 216.9 143.2 218.2 143 218.1"/><polygon class="cls-2" points="138.7 220.6 140.9 219.3 141.1 219.4 138.9 220.7 138.7 220.6"/><polygon class="cls-2" points="134.4 223.1 136.6 221.8 136.7 221.9 134.6 223.2 134.4 223.1"/><polygon class="cls-2" points="130.1 225.6 132.3 224.3 132.4 224.4 130.3 225.7 130.1 225.6"/><polygon class="cls-2" points="125.8 228.1 128 226.8 128.1 226.9 126 228.2 125.8 228.1"/><polygon class="cls-2" points="121.5 230.6 123.6 229.3 123.8 229.4 121.7 230.7 121.5 230.6"/><polygon class="cls-2" points="117.2 233.1 119.3 231.8 119.5 231.9 117.4 233.2 117.2 233.1"/><polygon class="cls-2" points="112.9 235.6 115 234.3 115.2 234.4 113.1 235.7 112.9 235.6"/><polygon class="cls-2" points="108.6 238.1 110.7 236.8 110.9 236.9 108.7 238.2 108.6 238.1"/><polygon class="cls-2" points="104.3 240.6 106.4 239.3 106.6 239.4 104.4 240.7 104.3 240.6"/><polygon class="cls-2" points="100 243.1 102.1 241.8 102.3 241.9 100.1 243.2 100 243.1"/><polygon class="cls-2" points="95.6 245.6 97.8 244.4 98 244.5 95.8 245.7 95.6 245.6"/><polygon class="cls-2" points="91.3 248.1 93.5 246.9 93.7 247 91.5 248.2 91.3 248.1"/><polygon class="cls-2" points="88.6 249.7 89.2 249.4 89.4 249.5 88.8 249.8 88.6 249.7"/><polygon class="cls-2" points="206.8 167.1 205.3 168 205.1 167.9 206.6 167 206.8 167.1"/><polygon class="cls-2" points="201.9 169.7 202.1 169.8 199.9 171.1 199.8 171 201.9 169.7"/><polygon class="cls-2" points="195.4 173.5 197.6 172.2 197.8 172.3 195.6 173.6 195.4 173.5"/><polygon class="cls-2" points="191.1 176 193.3 174.7 193.5 174.8 191.3 176.1 191.1 176"/><polygon class="cls-2" points="186.8 178.5 189 177.2 189.2 177.3 187 178.6 186.8 178.5"/><polygon class="cls-2" points="182.5 181 184.7 179.7 184.9 179.8 182.7 181.1 182.5 181"/><polygon class="cls-2" points="178.2 183.5 180.4 182.2 180.5 182.3 178.4 183.6 178.2 183.5"/><polygon class="cls-2" points="173.9 186 176.1 184.7 176.2 184.8 174.1 186.1 173.9 186"/><polygon class="cls-2" points="169.6 188.5 171.8 187.2 171.9 187.3 169.8 188.6 169.6 188.5"/><polygon class="cls-2" points="165.3 191 167.4 189.7 167.6 189.8 165.5 191.1 165.3 191"/><polygon class="cls-2" points="161 193.5 163.1 192.2 163.3 192.3 161.2 193.6 161 193.5"/><polygon class="cls-2" points="156.7 196 158.8 194.7 159 194.8 156.9 196.1 156.7 196"/><polygon class="cls-2" points="152.4 198.5 154.5 197.3 154.7 197.4 152.5 198.6 152.4 198.5"/><polygon class="cls-2" points="148.1 201 150.2 199.8 150.4 199.9 148.2 201.1 148.1 201"/><polygon class="cls-2" points="143.7 203.5 145.9 202.3 146.1 202.4 143.9 203.6 143.7 203.5"/><polygon class="cls-2" points="139.4 206 141.6 204.8 141.8 204.9 139.6 206.1 139.4 206"/><polygon class="cls-2" points="135.1 208.5 137.3 207.3 137.5 207.4 135.3 208.6 135.1 208.5"/><polygon class="cls-2" points="130.8 211 133 209.8 133.2 209.9 131 211.1 130.8 211"/><polygon class="cls-2" points="126.5 213.5 128.7 212.3 128.8 212.4 126.7 213.6 126.5 213.5"/><polygon class="cls-2" points="122.2 216 124.4 214.8 124.5 214.9 122.4 216.1 122.2 216"/><polygon class="cls-2" points="117.9 218.5 120.1 217.3 120.2 217.4 118.1 218.6 117.9 218.5"/><polygon class="cls-2" points="113.6 221 115.8 219.8 115.9 219.9 113.8 221.1 113.6 221"/><polygon class="cls-2" points="109.3 223.5 111.4 222.3 111.6 222.4 109.5 223.6 109.3 223.5"/><polygon class="cls-2" points="105 226 107.1 224.8 107.3 224.9 105.2 226.1 105 226"/><polygon class="cls-2" points="100.7 228.5 102.8 227.3 103 227.4 100.9 228.6 100.7 228.5"/><polygon class="cls-2" points="96.4 231 98.5 229.8 98.7 229.9 96.5 231.2 96.4 231"/><polygon class="cls-2" points="92.1 233.6 94.2 232.3 94.4 232.4 92.2 233.7 92.1 233.6"/><polygon class="cls-2" points="87.7 236.1 89.9 234.8 90.1 234.9 87.9 236.2 87.7 236.1"/><polygon class="cls-2" points="83.4 238.6 85.6 237.3 85.8 237.4 83.6 238.7 83.4 238.6"/><polygon class="cls-2" points="79.1 241.1 81.3 239.8 81.5 239.9 79.3 241.2 79.1 241.1"/><polygon class="cls-2" points="76.4 242.6 77 242.3 77.2 242.4 76.6 242.7 76.4 242.6"/><polygon class="cls-2" points="75 243.7 73.5 244.6 73.3 244.5 74.8 243.5 75 243.7"/><polygon class="cls-2" points="194.6 160 193.1 160.9 192.9 160.8 194.4 159.9 194.6 160"/><polygon class="cls-2" points="189.7 162.7 189.9 162.8 187.7 164 187.6 163.9 189.7 162.7"/><polygon class="cls-2" points="183.2 166.4 185.4 165.2 185.6 165.3 183.4 166.5 183.2 166.4"/><polygon class="cls-2" points="178.9 168.9 181.1 167.7 181.3 167.8 179.1 169 178.9 168.9"/><polygon class="cls-2" points="174.6 171.4 176.8 170.2 177 170.3 174.8 171.5 174.6 171.4"/><polygon class="cls-2" points="170.3 173.9 172.5 172.7 172.7 172.8 170.5 174 170.3 173.9"/><polygon class="cls-2" points="166 176.4 168.2 175.2 168.3 175.3 166.2 176.5 166 176.4"/><polygon class="cls-2" points="161.7 178.9 163.9 177.7 164 177.8 161.9 179 161.7 178.9"/><polygon class="cls-2" points="153.1 183.9 155.2 182.7 155.4 182.8 153.3 184.1 153.1 183.9"/><polygon class="cls-2" points="148.8 186.4 150.9 185.2 151.1 185.3 149 186.6 148.8 186.4"/><polygon class="cls-2" points="140.2 191.5 142.3 190.2 142.5 190.3 140.3 191.6 140.2 191.5"/><polygon class="cls-2" points="135.9 194 138 192.7 138.2 192.8 136 194.1 135.9 194"/><polygon class="cls-2" points="131.5 196.5 133.7 195.2 133.9 195.3 131.7 196.6 131.5 196.5"/><polygon class="cls-2" points="127.2 199 129.4 197.7 129.6 197.8 127.4 199.1 127.2 199"/><polygon class="cls-2" points="122.9 201.5 125.1 200.2 125.3 200.3 123.1 201.6 122.9 201.5"/><polygon class="cls-2" points="118.6 204 120.8 202.7 121 202.8 118.8 204.1 118.6 204"/><polygon class="cls-2" points="114.3 206.5 116.5 205.2 116.6 205.3 114.5 206.6 114.3 206.5"/><polygon class="cls-2" points="110 209 112.2 207.7 112.3 207.8 110.2 209.1 110 209"/><polygon class="cls-2" points="105.7 211.5 107.9 210.2 108 210.3 105.9 211.6 105.7 211.5"/><polygon class="cls-2" points="101.4 214 103.5 212.7 103.7 212.8 101.6 214.1 101.4 214"/><polygon class="cls-2" points="92.8 219 94.9 217.7 95.1 217.8 93 219.1 92.8 219"/><polygon class="cls-2" points="88.5 221.5 90.6 220.2 90.8 220.4 88.7 221.6 88.5 221.5"/><polygon class="cls-2" points="84.2 224 86.3 222.8 86.5 222.9 84.3 224.1 84.2 224"/><polygon class="cls-2" points="79.9 226.5 82 225.3 82.2 225.4 80 226.6 79.9 226.5"/><polygon class="cls-2" points="75.5 229 77.7 227.8 77.9 227.9 75.7 229.1 75.5 229"/><polygon class="cls-2" points="66.9 234 69.1 232.8 69.3 232.9 67.1 234.1 66.9 234"/><polygon class="cls-2" points="64.2 235.6 64.8 235.3 65 235.4 64.4 235.7 64.2 235.6"/><polygon class="cls-2" points="62.8 236.6 61.3 237.5 61.1 237.4 62.6 236.5 62.8 236.6"/><polygon class="cls-2" points="182.4 153 182.3 153 180.9 153.9 180.7 153.8 182.2 152.9 182.2 152.9 182.4 153"/><polygon class="cls-2" points="177.5 155.6 177.7 155.7 175.5 157 175.3 156.9 177.5 155.6"/><polygon class="cls-2" points="171 159.4 173.2 158.1 173.4 158.2 171.2 159.5 171 159.4"/><polygon class="cls-2" points="166.7 161.9 168.9 160.6 169.1 160.7 166.9 162 166.7 161.9"/><polygon class="cls-2" points="162.4 164.4 164.6 163.1 164.8 163.2 162.6 164.5 162.4 164.4"/><polygon class="cls-2" points="153.8 169.4 156 168.1 156.1 168.2 154 169.5 153.8 169.4"/><polygon class="cls-2" points="149.5 171.9 151.7 170.6 151.8 170.7 149.7 172 149.5 171.9"/><polygon class="cls-2" points="140.9 176.9 143 175.7 143.2 175.8 141.1 177 140.9 176.9"/><polygon class="cls-2" points="136.6 179.4 138.7 178.2 138.9 178.3 136.8 179.5 136.6 179.4"/><polygon class="cls-2" points="128 184.4 130.1 183.2 130.3 183.3 128.1 184.5 128 184.4"/><polygon class="cls-2" points="123.7 186.9 125.8 185.7 126 185.8 123.8 187 123.7 186.9"/><polygon class="cls-2" points="119.3 189.4 121.5 188.2 121.7 188.3 119.5 189.5 119.3 189.4"/><polygon class="cls-2" points="115 191.9 117.2 190.7 117.4 190.8 115.2 192 115 191.9"/><polygon class="cls-2" points="110.7 194.4 112.9 193.2 113.1 193.3 110.9 194.5 110.7 194.4"/><polygon class="cls-2" points="106.4 196.9 108.6 195.7 108.8 195.8 106.6 197 106.4 196.9"/><polygon class="cls-2" points="102.1 199.4 104.3 198.2 104.4 198.3 102.3 199.5 102.1 199.4"/><polygon class="cls-2" points="93.5 204.4 95.7 203.2 95.8 203.3 93.7 204.5 93.5 204.4"/><polygon class="cls-2" points="89.2 206.9 91.3 205.7 91.5 205.8 89.4 207 89.2 206.9"/><polygon class="cls-2" points="80.6 212 82.7 210.7 82.9 210.8 80.8 212.1 80.6 212"/><polygon class="cls-2" points="76.3 214.5 78.4 213.2 78.6 213.3 76.4 214.6 76.3 214.5"/><polygon class="cls-2" points="67.7 219.5 69.8 218.2 70 218.3 67.8 219.6 67.7 219.5"/><polygon class="cls-2" points="63.3 222 65.5 220.7 65.7 220.8 63.5 222.1 63.3 222"/><polygon class="cls-2" points="54.7 227 56.9 225.7 57.1 225.8 54.9 227.1 54.7 227"/><polygon class="cls-2" points="52 228.5 52.6 228.2 52.8 228.3 52.2 228.6 52 228.5"/><polygon class="cls-2" points="50.6 229.6 49.1 230.5 48.9 230.4 50.4 229.5 50.6 229.6"/><polygon class="cls-2" points="170.2 145.9 170.1 146 168.7 146.8 168.5 146.7 169.9 145.9 170 145.8 170.2 145.9"/><polygon class="cls-2" points="165.3 148.6 165.5 148.7 163.3 149.9 163.1 149.8 165.3 148.6"/><polygon class="cls-2" points="158.8 152.3 161 151.1 161.2 151.2 159 152.4 158.8 152.3"/><polygon class="cls-2" points="154.5 154.8 156.7 153.6 156.9 153.7 154.7 154.9 154.5 154.8"/><polygon class="cls-2" points="150.2 157.3 152.4 156.1 152.6 156.2 150.4 157.4 150.2 157.3"/><polygon class="cls-2" points="141.6 162.3 143.8 161.1 143.9 161.2 141.8 162.5 141.6 162.3"/><polygon class="cls-2" points="137.3 164.9 139.5 163.6 139.6 163.7 137.5 165 137.3 164.9"/><polygon class="cls-2" points="128.7 169.9 130.8 168.6 131 168.7 128.9 170 128.7 169.9"/><polygon class="cls-2" points="124.4 172.4 126.5 171.1 126.7 171.2 124.6 172.5 124.4 172.4"/><polygon class="cls-2" points="115.8 177.4 117.9 176.1 118.1 176.2 115.9 177.5 115.8 177.4"/><polygon class="cls-2" points="111.5 179.9 113.6 178.6 113.8 178.7 111.6 180 111.5 179.9"/><polygon class="cls-2" points="107.1 182.4 109.3 181.1 109.5 181.2 107.3 182.5 107.1 182.4"/><polygon class="cls-2" points="102.8 184.9 105 183.6 105.2 183.7 103 185 102.8 184.9"/><polygon class="cls-2" points="98.5 187.4 100.7 186.1 100.9 186.2 98.7 187.5 98.5 187.4"/><polygon class="cls-2" points="94.2 189.9 96.4 188.6 96.6 188.7 94.4 190 94.2 189.9"/><polygon class="cls-2" points="89.9 192.4 92.1 191.1 92.2 191.2 90.1 192.5 89.9 192.4"/><polygon class="cls-2" points="81.3 197.4 83.5 196.1 83.6 196.2 81.5 197.5 81.3 197.4"/><polygon class="cls-2" points="77 199.9 79.1 198.6 79.3 198.8 77.2 200 77 199.9"/><polygon class="cls-2" points="68.4 204.9 70.5 203.7 70.7 203.8 68.6 205 68.4 204.9"/><polygon class="cls-2" points="64.1 207.4 66.2 206.2 66.4 206.3 64.2 207.5 64.1 207.4"/><polygon class="cls-2" points="55.4 212.4 57.6 211.2 57.8 211.3 55.6 212.5 55.4 212.4"/><polygon class="cls-2" points="51.1 214.9 53.3 213.7 53.5 213.8 51.3 215 51.1 214.9"/><polygon class="cls-2" points="48.9 216.2 49 216.2 49.2 216.3 49.1 216.3 48.9 216.4 47 217.5 46.8 217.4 48.7 216.3 48.9 216.2"/><polygon class="cls-2" points="42.5 219.9 44.7 218.7 44.9 218.8 42.7 220 42.5 219.9"/><polygon class="cls-2" points="39.8 221.5 40.4 221.2 40.5 221.3 40 221.6 39.8 221.5"/><polygon class="cls-2" points="38.4 222.5 37 223.4 36.9 223.4 36.7 223.3 36.8 223.3 38.2 222.4 38.4 222.5"/><polygon class="cls-2" points="153.1 141.5 153.3 141.6 151.1 142.9 150.9 142.8 153.1 141.5"/><polygon class="cls-2" points="146.6 145.3 148.8 144 149 144.1 146.8 145.4 146.6 145.3"/><polygon class="cls-2" points="142.3 147.8 144.5 146.5 144.7 146.6 142.5 147.9 142.3 147.8"/><polygon class="cls-2" points="138 150.3 140.2 149 140.4 149.1 138.2 150.4 138 150.3"/><polygon class="cls-2" points="133.7 152.8 135.9 151.5 136 151.7 133.9 152.9 133.7 152.8"/><polygon class="cls-2" points="129.4 155.3 131.6 154.1 131.7 154.2 129.6 155.4 129.4 155.3"/><polygon class="cls-2" points="125.1 157.8 127.3 156.6 127.4 156.7 125.3 157.9 125.1 157.8"/><polygon class="cls-2" points="116.5 162.8 118.6 161.6 118.8 161.7 116.7 162.9 116.5 162.8"/><polygon class="cls-2" points="112.2 165.3 114.3 164.1 114.5 164.2 112.4 165.4 112.2 165.3"/><polygon class="cls-2" points="107.9 167.8 110 166.6 110.2 166.7 108.1 167.9 107.9 167.8"/><polygon class="cls-2" points="103.6 170.3 105.7 169.1 105.9 169.2 103.7 170.4 103.6 170.3"/><polygon class="cls-2" points="99.3 172.8 101.4 171.6 101.6 171.7 99.4 172.9 99.3 172.8"/><polygon class="cls-2" points="94.9 175.3 97.1 174.1 97.3 174.2 95.1 175.4 94.9 175.3"/><polygon class="cls-2" points="90.6 177.8 92.8 176.6 93 176.7 90.8 177.9 90.6 177.8"/><polygon class="cls-2" points="86.3 180.3 88.5 179.1 88.7 179.2 86.5 180.4 86.3 180.3"/><polygon class="cls-2" points="82 182.8 84.2 181.6 84.4 181.7 82.2 182.9 82 182.8"/><polygon class="cls-2" points="77.7 185.3 79.9 184.1 80 184.2 77.9 185.5 77.7 185.3"/><polygon class="cls-2" points="73.4 187.9 75.6 186.6 75.7 186.7 73.6 188 73.4 187.9"/><polygon class="cls-2" points="69.1 190.4 71.3 189.1 71.4 189.2 69.3 190.5 69.1 190.4"/><polygon class="cls-2" points="64.8 192.9 66.9 191.6 67.1 191.7 65 193 64.8 192.9"/><polygon class="cls-2" points="60.5 195.4 62.6 194.1 62.8 194.2 60.7 195.5 60.5 195.4"/><polygon class="cls-2" points="56.2 197.9 58.3 196.6 58.5 196.7 56.4 198 56.2 197.9"/><polygon class="cls-2" points="51.9 200.4 54 199.1 54.2 199.2 52 200.5 51.9 200.4"/><polygon class="cls-2" points="47.6 202.9 49.7 201.6 49.9 201.7 47.7 203 47.6 202.9"/><polygon class="cls-2" points="43.2 205.4 45.4 204.1 45.6 204.2 43.4 205.5 43.2 205.4"/><polygon class="cls-2" points="38.9 207.9 41.1 206.6 41.3 206.7 39.1 208 38.9 207.9"/><polygon class="cls-2" points="30.3 212.9 32.5 211.6 32.7 211.7 30.5 213 30.3 212.9"/><polygon class="cls-2" points="27.6 214.4 28.2 214.1 28.3 214.2 27.8 214.6 27.6 214.4"/><polygon class="cls-2" points="26.2 215.5 24.8 216.3 24.7 216.4 24.5 216.3 24.6 216.2 26 215.4 26.2 215.5"/><polygon class="cls-2" points="145.8 131.8 144.3 132.7 144.1 132.6 145.6 131.7 145.8 131.8"/><polygon class="cls-2" points="140.9 134.5 141.1 134.6 138.9 135.8 138.7 135.7 140.9 134.5"/><polygon class="cls-2" points="134.4 138.2 136.6 137 136.8 137.1 134.6 138.3 134.4 138.2"/><polygon class="cls-2" points="130.1 140.7 132.3 139.5 132.5 139.6 130.3 140.9 130.1 140.7"/><polygon class="cls-2" points="125.8 143.3 128 142 128.2 142.1 126 143.4 125.8 143.3"/><polygon class="cls-2" points="121.5 145.8 123.7 144.5 123.8 144.6 121.7 145.9 121.5 145.8"/><polygon class="cls-2" points="117.2 148.3 119.4 147 119.5 147.1 117.4 148.4 117.2 148.3"/><polygon class="cls-2" points="112.9 150.8 115.1 149.5 115.2 149.6 113.1 150.9 112.9 150.8"/><polygon class="cls-2" points="108.6 153.3 110.7 152 110.9 152.1 108.8 153.4 108.6 153.3"/><polygon class="cls-2" points="104.3 155.8 106.4 154.5 106.6 154.6 104.5 155.9 104.3 155.8"/><polygon class="cls-2" points="100 158.3 102.1 157 102.3 157.1 100.2 158.4 100 158.3"/><polygon class="cls-2" points="95.7 160.8 97.8 159.5 98 159.6 95.8 160.9 95.7 160.8"/><polygon class="cls-2" points="91.4 163.3 93.5 162 93.7 162.1 91.5 163.4 91.4 163.3"/><polygon class="cls-2" points="87 165.8 89.2 164.5 89.4 164.6 87.2 165.9 87 165.8"/><polygon class="cls-2" points="82.7 168.3 84.9 167 85.1 167.1 82.9 168.4 82.7 168.3"/><polygon class="cls-2" points="78.4 170.8 80.6 169.5 80.8 169.6 78.6 170.9 78.4 170.8"/><polygon class="cls-2" points="74.1 173.3 76.3 172 76.5 172.1 74.3 173.4 74.1 173.3"/><polygon class="cls-2" points="69.8 175.8 72 174.5 72.2 174.7 70 175.9 69.8 175.8"/><polygon class="cls-2" points="65.5 178.3 67.7 177.1 67.8 177.2 65.7 178.4 65.5 178.3"/><polygon class="cls-2" points="61.2 180.8 63.4 179.6 63.5 179.7 61.4 180.9 61.2 180.8"/><polygon class="cls-2" points="56.9 183.3 59.1 182.1 59.2 182.2 57.1 183.4 56.9 183.3"/><polygon class="cls-2" points="52.6 185.8 54.7 184.6 54.9 184.7 52.8 185.9 52.6 185.8"/><polygon class="cls-2" points="48.3 188.3 50.4 187.1 50.6 187.2 48.5 188.4 48.3 188.3"/><polygon class="cls-2" points="44 190.8 46.1 189.6 46.3 189.7 44.2 190.9 44 190.8"/><polygon class="cls-2" points="39.7 193.3 41.8 192.1 42 192.2 39.8 193.4 39.7 193.3"/><polygon class="cls-2" points="35.4 195.8 37.5 194.6 37.7 194.7 35.5 195.9 35.4 195.8"/><polygon class="cls-2" points="31 198.3 33.2 197.1 33.4 197.2 31.2 198.4 31 198.3"/><polygon class="cls-2" points="26.7 200.8 28.9 199.6 29.1 199.7 26.9 200.9 26.7 200.8"/><polygon class="cls-2" points="22.4 203.3 24.6 202.1 24.8 202.2 22.6 203.4 22.4 203.3"/><polygon class="cls-2" points="18.1 205.8 20.3 204.6 20.5 204.7 18.3 205.9 18.1 205.8"/><polygon class="cls-2" points="15.4 207.4 16 207.1 16.1 207.2 15.6 207.5 15.4 207.4"/><g class="cls-1"><path class="cls-3" d="M202.5,192.1v6.6a4.8,4.8,0,0,1-2.8,3.9V196C201.6,194.9,202.5,193.5,202.5,192.1Z"/><path class="cls-3" d="M65.6,198.6V192c0,1.5.9,2.9,2.8,4v6.6C66.5,201.5,65.6,200.1,65.6,198.6Z"/><polygon class="cls-3" points="199.7 196 199.7 202.6 141.1 236.7 141.1 230 199.7 196"/><polygon class="cls-3" points="127.4 230 127.3 236.7 68.4 202.6 68.4 196 127.4 230"/><path class="cls-3" d="M141.1,230v6.7a15.3,15.3,0,0,1-13.8,0V230C131.2,232.2,137.4,232.2,141.1,230Z"/><path class="cls-4" d="M199.6,188c3.8,2.2,3.9,5.8.1,8l-58.6,34c-3.7,2.2-9.9,2.2-13.7,0l-59-34c-3.8-2.2-3.8-5.8,0-8l58.5-34a15.3,15.3,0,0,1,13.8,0Z"/></g><g class="cls-1"><path class="cls-5" d="M196.3,186.3v6.1c0,1.3-.8,2.6-2.5,3.6v-6.1C195.4,188.9,196.3,187.6,196.3,186.3Z"/><path class="cls-5" d="M71.3,192.3v-6c0,1.3.9,2.6,2.6,3.6V196A4.4,4.4,0,0,1,71.3,192.3Z"/><polygon class="cls-5" points="193.7 189.9 193.7 196 140.2 227 140.3 221 193.7 189.9"/><polygon class="cls-5" points="127.7 221 127.7 227 73.9 196 73.9 189.9 127.7 221"/><path class="cls-5" d="M140.3,221v6a13.8,13.8,0,0,1-12.5,0v-6A14,14,0,0,0,140.3,221Z"/><path class="cls-5" d="M193.7,182.6c3.4,2.1,3.4,5.3,0,7.3L140.3,221a14,14,0,0,1-12.6,0L73.9,189.9c-3.5-2-3.5-5.2,0-7.2l53.4-31.1a14,14,0,0,1,12.6,0Z"/></g><g class="cls-1"><path class="cls-3" d="M202.6,177.4V184c0,1.5-.9,2.9-2.8,4v-6.6C201.7,180.3,202.6,178.8,202.6,177.4Z"/><path class="cls-3" d="M65.7,184v-6.7c0,1.5,1,3,2.9,4.1V188C66.6,186.9,65.7,185.4,65.7,184Z"/><polygon class="cls-3" points="199.8 181.4 199.8 188 141.3 222 141.3 215.4 199.8 181.4"/><polygon class="cls-3" points="127.5 215.4 127.5 222 68.5 188 68.6 181.4 127.5 215.4"/><path class="cls-3" d="M141.3,215.4V222a15.3,15.3,0,0,1-13.8,0v-6.6A15.3,15.3,0,0,0,141.3,215.4Z"/><path class="cls-6" d="M199.8,173.4c3.8,2.2,3.8,5.8,0,8l-58.5,34a15.3,15.3,0,0,1-13.8,0l-58.9-34c-3.8-2.2-3.9-5.8-.1-8l58.6-34c3.7-2.2,9.9-2.2,13.8,0Z"/></g><g class="cls-1"><path class="cls-5" d="M196.3,171.3v6.1c0,1.3-.8,2.6-2.5,3.6v-6.1C195.5,173.9,196.3,172.6,196.3,171.3Z"/><path class="cls-5" d="M71.4,177.3v-6c0,1.3.8,2.6,2.6,3.6V181C72.2,180,71.3,178.6,71.4,177.3Z"/><polygon class="cls-5" points="193.8 174.9 193.8 181 140.3 212 140.3 206 193.8 174.9"/><polygon class="cls-5" points="127.8 206 127.7 212 74 181 74 174.9 127.8 206"/><path class="cls-5" d="M140.3,206v6a14,14,0,0,1-12.6,0v-6A13.8,13.8,0,0,0,140.3,206Z"/><path class="cls-5" d="M193.7,167.6c3.5,2.1,3.5,5.3.1,7.3L140.3,206a13.8,13.8,0,0,1-12.5,0L74,174.9c-3.5-2-3.5-5.2-.1-7.2l53.5-31.1a14,14,0,0,1,12.6,0Z"/></g><g class="cls-1"><path class="cls-3" d="M202.7,162.4V169c0,1.5-.9,2.9-2.8,4v-6.6C201.8,165.3,202.7,163.8,202.7,162.4Z"/><path class="cls-3" d="M65.8,169v-6.7a4.9,4.9,0,0,0,2.8,4.1V173C66.7,171.9,65.8,170.4,65.8,169Z"/><polygon class="cls-3" points="199.9 166.4 199.9 173 141.3 207 141.4 200.4 199.9 166.4"/><polygon class="cls-3" points="127.6 200.4 127.5 207 68.6 173 68.6 166.4 127.6 200.4"/><path class="cls-3" d="M141.4,200.4V207c-3.7,2.2-9.9,2.2-13.8,0v-6.6A15.3,15.3,0,0,0,141.4,200.4Z"/><path class="cls-7" d="M199.9,158.4c3.8,2.2,3.8,5.8,0,8l-58.5,34a15.3,15.3,0,0,1-13.8,0l-59-34c-3.8-2.2-3.8-5.8,0-8l58.5-34a15.3,15.3,0,0,1,13.8,0Z"/></g><g class="cls-1"><path class="cls-8" d="M139.9,123.8v6.6a13.6,13.6,0,0,0-12.1,0v-6.6A13.6,13.6,0,0,1,139.9,123.8Z"/><polygon class="cls-8" points="189.2 152.3 189.2 158.9 139.9 130.4 139.9 123.8 189.2 152.3"/><path class="cls-8" d="M191.7,155.8v6.6c0-1.3-.8-2.5-2.5-3.5v-6.6A4.1,4.1,0,0,1,191.7,155.8Z"/><path class="cls-8" d="M76.3,162.4v-6.7a4.1,4.1,0,0,1,2.4-3.4v6.6A4.5,4.5,0,0,0,76.3,162.4Z"/><path class="cls-8" d="M194.1,155.8v6.6c0,1.6-1,3.2-3.2,4.5v-6.6C193.1,159,194.1,157.4,194.1,155.8Z"/><path class="cls-8" d="M73.9,162.4v-6.7c0,1.7,1.1,3.3,3.3,4.6v6.6C75,165.6,73.9,164,73.9,162.4Z"/><path class="cls-9" d="M190.9,151.3c4.3,2.4,4.3,6.5.1,9l-49,28.4a17,17,0,0,1-15.5,0L77.2,160.3c-4.3-2.5-4.3-6.6-.1-9l49-28.5a17,17,0,0,1,15.5,0Zm-50.6,36.4,48.9-28.4c3.4-2,3.3-5.1,0-7l-49.3-28.5a13.6,13.6,0,0,0-12.1,0l-49,28.5c-3.3,1.9-3.3,5,.1,7l49.3,28.4a13.6,13.6,0,0,0,12.1,0"/><polygon class="cls-8" points="127.8 123.8 127.8 130.4 78.8 158.9 78.8 152.3 127.8 123.8"/><polygon class="cls-8" points="191 160.3 190.9 166.9 142 195.3 142 188.7 191 160.3"/><polygon class="cls-8" points="126.5 188.7 126.4 195.3 77.1 166.9 77.2 160.3 126.5 188.7"/><path class="cls-8" d="M142,188.7v6.6a17.2,17.2,0,0,1-15.6,0v-6.6A17,17,0,0,0,142,188.7Z"/></g><g class="cls-1"><path class="cls-8" d="M176.5,160.2v1.3c0,1.5-1,2.9-2.9,4v-1.3C175.5,163.1,176.5,161.7,176.5,160.2Z"/><path class="cls-8" d="M91.6,161.5v-1.3c0,1.4.9,2.9,2.9,4v1.3C92.5,164.4,91.6,162.9,91.6,161.5Z"/><polygon class="cls-8" points="173.6 164.2 173.6 165.5 141.1 184.4 141.1 183.1 173.6 164.2"/><polygon class="cls-8" points="127.3 183.1 127.3 184.5 94.4 165.5 94.5 164.2 127.3 183.1"/><path class="cls-8" d="M141.1,183.1v1.3a15.6,15.6,0,0,1-13.8.1v-1.4A15.3,15.3,0,0,0,141.1,183.1Z"/><path class="cls-9" d="M173.6,156.2c3.8,2.2,3.8,5.8,0,8l-32.5,18.9a15.3,15.3,0,0,1-13.8,0L94.5,164.2c-3.8-2.2-3.9-5.8-.1-8L127,137.3a15.3,15.3,0,0,1,13.8,0Z"/></g><g class="cls-1"><path class="cls-9" d="M158.4,133.5a21.7,21.7,0,0,0,6.6.8l-.8,1.6a25.6,25.6,0,0,1-6.6-.9Z"/><path class="cls-9" d="M165,134.3c4.3-.1,7.2-1.7,8.6-4.2l-.9,1.6c-1.3,2.4-4.2,4-8.5,4.2Z"/><path class="cls-9" d="M141.6,121.8c3.4,5.4,10.1,9.9,16.8,11.7l-.8,1.5c-6.7-1.8-13.5-6.3-16.8-11.7-2.2-3.5-2.5-6.8-1.2-9.3l.8-1.5C139.1,114.9,139.4,118.2,141.6,121.8Z"/><path class="cls-10" d="M139.6,114l.8-1.5c1.4-2.5,4.3-4.1,8.6-4.2l-.8,1.5C143.9,110,140.9,111.6,139.6,114Z"/><path class="cls-11" d="M136.9,111.4l.8-1.5c1.8-3.2,5.7-5.4,11.3-5.5l-.8,1.5C142.6,106.1,138.7,108.2,136.9,111.4Z"/><path class="cls-10" d="M148.2,109.8c8.4-.2,18.9,5.4,23.3,12.6s1.2,13.2-7.3,13.5-18.9-5.4-23.4-12.6S139.7,110.1,148.2,109.8Z"/><path class="cls-10" d="M173.6,130.1l-.9,1.6c1.3-2.5,1-5.8-1.2-9.3-4.4-7.2-14.9-12.8-23.3-12.6l.8-1.5c8.5-.3,18.9,5.4,23.4,12.5C174.6,124.4,174.8,127.7,173.6,130.1Z"/><path class="cls-12" d="M181.6,133.3l-.8,1.5c1.7-3.2,1.3-7.6-1.6-12.3-5.9-9.5-19.7-17-31-16.6l.8-1.5c11.3-.4,25.1,7,31,16.6C182.9,125.7,183.3,130,181.6,133.3Z"/><path class="cls-9" d="M148.2,105.9c11.3-.4,25.1,7.1,31,16.6s1.5,17.5-9.7,17.8-25.1-7-31-16.5S137,106.2,148.2,105.9Zm16,30c8.5-.3,11.8-6.3,7.3-13.5s-14.9-12.8-23.3-12.6-11.8,6.3-7.4,13.5,14.9,12.8,23.4,12.6"/></g><g class="cls-1"><path class="cls-13" d="M140,114.1l.2-.5c-1.4,2.7-1.1,6.4,1.4,10.4,4.9,8,16.7,14.3,26.1,14l-.2.5c-9.5.3-21.2-6-26.2-14C138.8,120.5,138.5,116.8,140,114.1Z"/><path class="cls-13" d="M177.3,133.3l-.3.5c-1.5,2.8-4.8,4.6-9.5,4.7l.2-.5C172.5,137.8,175.8,136.1,177.3,133.3Z"/><path class="cls-13" d="M138.7,113.4l.3-.5c1.6-2.9,5.1-4.9,10.2-5l-.3.5C143.8,108.6,140.3,110.5,138.7,113.4Z"/><path class="cls-13" d="M178.5,134l-.3.5c1.6-3,1.2-6.9-1.4-11.1-5.3-8.6-17.8-15.3-27.9-15l.3-.5c10.1-.3,22.6,6.4,27.9,15C179.7,127.1,180.1,131,178.5,134Z"/><path class="cls-3" d="M148.9,108.4c10.1-.3,22.6,6.4,27.9,15s1.4,15.8-8.7,16.1-22.7-6.4-27.9-15S138.8,108.7,148.9,108.4Zm18.6,30.1c9.4-.3,13.1-7.1,8.2-15.1s-16.7-14.3-26.2-14-13.1,7-8.2,15.1,16.7,14.3,26.2,14"/></g><g class="cls-1"><polygon class="cls-13" points="148 123.9 148.2 123.4 151.3 122.6 151.1 123.1 148 123.9"/><polygon class="cls-13" points="158.8 123.6 159.1 123.1 161 128.5 160.7 129 158.8 123.6"/><polygon class="cls-13" points="171.5 128.7 171.8 128.2 173.3 132.4 173 132.9 171.5 128.7"/><polygon class="cls-13" points="160.7 129 161 128.5 171.8 128.2 171.5 128.7 160.7 129"/><polygon class="cls-13" points="161 120.4 161.3 119.9 162.7 122.1 162.4 122.6 161 120.4"/><polygon class="cls-13" points="157.9 121.2 158.2 120.7 161.3 119.9 161 120.4 157.9 121.2"/><polygon class="cls-3" points="154.8 112.6 157.9 121.2 161 120.4 162.4 122.6 158.8 123.6 160.7 129 171.5 128.7 173 132.9 154.9 133.5 151.9 125.4 149.3 126.1 148 123.9 151.1 123.1 147.3 112.9 154.8 112.6"/><polygon class="cls-13" points="154.8 112.6 155 112.1 158.2 120.7 157.9 121.2 154.8 112.6"/><polygon class="cls-13" points="147.3 112.9 147.6 112.3 155 112.1 154.8 112.6 147.3 112.9"/></g><g class="cls-1"><path class="cls-9" d="M152.3,150.3c0-.1-.1-.1-.1-.2v-1.9a.1.1,0,0,1,.1.1Z"/><path class="cls-9" d="M152.3,150.3v-2a8.9,8.9,0,0,1,.3,2.2v1.9A7.6,7.6,0,0,0,152.3,150.3Z"/><path class="cls-9" d="M116.4,143.8c-4.1,2.3-6.1,5.5-6.1,8.6v-2c0-3.1,2.1-6.2,6.1-8.6,8.3-4.8,21.7-4.8,30,0,3.1,1.8,5,4,5.8,6.4v1.9c-.8-2.3-2.7-4.5-5.8-6.3C138.1,139,124.7,139,116.4,143.8Z"/><path class="cls-9" d="M152.6,152.5h0v-1.9h0Z"/><path class="cls-10" d="M152.6,150.6v1.9c0,3.1-2,6.2-6.1,8.6-8.3,4.8-21.7,4.8-30,0-4.1-2.4-6.2-5.6-6.2-8.7v-2c0,3.2,2.1,6.4,6.2,8.8,8.3,4.8,21.7,4.8,30,0C150.6,156.8,152.6,153.7,152.6,150.6Z"/><path class="cls-10" d="M146.4,141.8c8.3,4.8,8.3,12.6.1,17.4s-21.7,4.8-30,0-8.3-12.6-.1-17.4S138.1,137,146.4,141.8Z"/><path class="cls-14" d="M159.9,151.4v1.9c0,4.1-2.7,8.3-8.1,11.4-11,6.3-28.7,6.4-39.7,0-5.5-3.2-8.3-7.4-8.2-11.5v-2c-.1,4.2,2.7,8.4,8.2,11.6,11,6.3,28.8,6.3,39.7,0C157.2,159.6,159.9,155.5,159.9,151.4Z"/><path class="cls-9" d="M151.6,139.8c11,6.4,11.1,16.6.2,23s-28.7,6.3-39.7,0-11-16.6-.1-23S140.7,133.5,151.6,139.8Zm-35.1,19.4c8.3,4.8,21.7,4.8,30,0s8.2-12.6-.1-17.4-21.7-4.8-30,0-8.2,12.6.1,17.4"/></g><g class="cls-1"><path class="cls-13" d="M155.1,151.2v.7c0-3.5-2.3-7.1-6.9-9.8-9.3-5.3-24.3-5.3-33.5,0-4.6,2.7-6.9,6.2-6.9,9.7v-.7c0-3.5,2.3-7,6.9-9.6,9.2-5.4,24.2-5.4,33.5,0C152.8,144.2,155.1,147.7,155.1,151.2Z"/><path class="cls-13" d="M156.7,151.2v.7c0,3.7-2.4,7.4-7.3,10.3-9.8,5.7-25.9,5.7-35.8,0-4.9-2.9-7.4-6.7-7.4-10.5v-.6c0,3.8,2.5,7.5,7.5,10.4,9.8,5.7,25.9,5.7,35.7,0C154.3,158.7,156.7,155,156.7,151.2Z"/><path class="cls-3" d="M149.3,140.8c9.9,5.7,9.9,15,.1,20.7s-25.9,5.7-35.7,0-10-15-.2-20.7S139.4,135.1,149.3,140.8Zm-34.5,20.1c9.2,5.3,24.3,5.3,33.5,0s9.1-14.1-.1-19.4-24.3-5.4-33.5,0-9.2,14,.1,19.4"/></g><g class="cls-1"><polygon class="cls-13" points="126.9 154 126.9 154.7 123.1 146.3 123.1 145.6 126.9 154"/><polygon class="cls-3" points="141.4 156.2 126.9 154 123.1 145.6 147.2 142.2 141.4 156.2"/><polygon class="cls-13" points="141.4 156.2 141.4 156.9 126.9 154.7 126.9 154 141.4 156.2"/><polygon class="cls-13" points="147.2 142.2 147.2 142.9 141.4 156.9 141.4 156.2 147.2 142.2"/><polygon class="cls-13" points="140.8 157.5 140.8 158.2 117.8 160 117.8 159.3 140.8 157.5"/><polygon class="cls-3" points="125 155.1 140.8 157.5 117.8 159.3 120.8 146 125 155.1"/></g><g class="cls-1"><path class="cls-9" d="M108.4,108.5a22.9,22.9,0,0,0,6.5,1.6l-1,1.4a24.8,24.8,0,0,1-6.4-1.5Z"/><path class="cls-9" d="M93,95.2c2.7,5.7,8.9,10.8,15.4,13.3l-.9,1.5c-6.5-2.5-12.7-7.7-15.5-13.4-1.8-3.8-1.7-7.1-.2-9.4l1-1.4C91.2,88.1,91.2,91.4,93,95.2Z"/><path class="cls-9" d="M114.9,110.1c4.2.3,7.4-1,8.9-3.3l-.9,1.4c-1.6,2.3-4.7,3.6-9,3.3Z"/><path class="cls-10" d="M91.8,87.2l1-1.4c1.6-2.3,4.7-3.6,8.9-3.3l-1,1.5C96.5,83.6,93.4,84.9,91.8,87.2Z"/><path class="cls-15" d="M87.2,83.6l1-1.5c2.1-3,6.2-4.7,11.8-4.3l-1,1.4C93.4,78.8,89.3,80.5,87.2,83.6Z"/><path class="cls-10" d="M123.8,106.8l-.9,1.4c1.5-2.3,1.6-5.6-.3-9.3C119,91.3,109.2,84.6,100.7,84l1-1.5c8.5.7,18.3,7.3,21.9,14.9C125.4,101.2,125.4,104.5,123.8,106.8Z"/><path class="cls-9" d="M99,79.2c11.2.8,24.2,9.7,29,19.7s-.3,17.6-11.5,16.8-24.2-9.7-29-19.8S87.8,78.4,99,79.2Zm14.9,32.3c8.5.6,12.4-5,8.7-12.6S109.2,84.6,100.7,84,88.4,89,92,96.6s13.5,14.3,21.9,14.9"/><path class="cls-10" d="M100.7,84c8.5.6,18.3,7.3,21.9,14.9s-.2,13.2-8.7,12.6S95.7,104.2,92,96.6,92.3,83.3,100.7,84Z"/><path class="cls-16" d="M129.3,109.9l-1,1.4c2-3,2.1-7.4-.3-12.4-4.8-10-17.8-18.9-29-19.7l1-1.4c11.2.8,24.2,9.7,29,19.7C131.4,102.5,131.3,106.9,129.3,109.9Z"/></g><g class="cls-1"><path class="cls-13" d="M89.8,86.7l.3-.5c-1.7,2.6-1.8,6.3.2,10.5,4.1,8.5,15.1,16,24.5,16.7l-.3.5c-9.4-.7-20.4-8.2-24.5-16.7C88,93,88.1,89.3,89.8,86.7Z"/><path class="cls-13" d="M124.8,109.7l-.3.5c-1.8,2.6-5.2,4-10,3.7l.3-.5C119.6,113.7,123.1,112.3,124.8,109.7Z"/><path class="cls-13" d="M88.6,85.9l.4-.4c1.8-2.8,5.5-4.3,10.6-4l-.3.5C94.2,81.6,90.5,83.2,88.6,85.9Z"/><path class="cls-13" d="M126,110.5l-.4.5c1.9-2.8,2-6.7-.2-11.2-4.3-9.1-16.1-17-26.1-17.8l.3-.5c10.1.8,21.8,8.8,26.1,17.8C127.9,103.8,127.8,107.8,126,110.5Z"/><path class="cls-3" d="M99.3,82c10,.8,21.8,8.7,26.1,17.8s-.3,15.8-10.4,15.1-21.8-8.7-26.1-17.8S89.2,81.3,99.3,82Zm15.2,31.9c9.5.7,13.8-5.7,9.8-14.2S109.2,83.8,99.8,83.1,86,88.7,90,97.2s15.1,16,24.5,16.7"/></g><g class="cls-1"><path class="cls-13" d="M107.9,106l-.4.5a3.2,3.2,0,0,0,0-3.3l-1.1-1.6.3-.4,1.1,1.5A3.5,3.5,0,0,1,107.9,106Z"/><path class="cls-13" d="M96.7,99.1l.3-.4a3.1,3.1,0,0,1,3.1-1.2,9.2,9.2,0,0,1,4.8,2l-.3.4A9.9,9.9,0,0,0,99.8,98C98.3,97.9,97.2,98.3,96.7,99.1Z"/><path class="cls-13" d="M106.7,98.3l-.3.5c-.2.3-.8.5-1.8,1.1l.3-.4C105.9,98.8,106.5,98.6,106.7,98.3Z"/><path class="cls-13" d="M107.4,96l.3-.5c1.8,3.7.4,2.4,4.9,4.5l-.3.5C107.8,98.3,109.2,99.7,107.4,96Z"/><path class="cls-13" d="M112.4,100.4l.3-.5a3.4,3.4,0,0,1,3.2-1.2,10.3,10.3,0,0,1,7.6,5.2,3.5,3.5,0,0,1,.1,3.3l-.3.5a3.5,3.5,0,0,0-.1-3.3,10.1,10.1,0,0,0-7.6-5.2A3.1,3.1,0,0,0,112.4,100.4Z"/><path class="cls-13" d="M98.6,87.5,99,87c.5-.8,1.6-1.2,3.1-1.1l-.3.5A3.5,3.5,0,0,0,98.6,87.5Z"/><path class="cls-13" d="M109.8,94.4l-.3.4a3.3,3.3,0,0,0-.1-3.2,10.1,10.1,0,0,0-7.6-5.2l.3-.5a10.1,10.1,0,0,1,7.6,5.2A3.3,3.3,0,0,1,109.8,94.4Z"/><path class="cls-3" d="M101.8,86.4a10.1,10.1,0,0,1,7.6,5.2c1.1,2.3.2,4.1-2,4.4,1.8,3.7.4,2.3,4.9,4.5a3.2,3.2,0,0,1,3.3-1.3,10.1,10.1,0,0,1,7.6,5.2c1.3,2.6-.1,4.6-3,4.4a10.1,10.1,0,0,1-7.7-5.2,5.6,5.6,0,0,1-.4-1.5,22.5,22.5,0,0,0-3.5-1.6c-.6,0-.9.4-2.2,1.1l1.1,1.6c1.2,2.7-.2,4.6-3.1,4.4a9.8,9.8,0,0,1-7.6-5.2c-1.3-2.6,0-4.6,3-4.4a9.9,9.9,0,0,1,4.8,1.9c2.4-1.4,2.4-.7.8-4a10.3,10.3,0,0,1-6.7-5.1C97.4,88.1,98.8,86.2,101.8,86.4Z"/></g><g class="cls-1"><path class="cls-9" d="M172,78.3c1.6-3.9,1.3-7.2-.3-9.4l1,1.4c1.7,2.2,1.9,5.5.3,9.3-3.2,7.8-12.6,15.1-21,16.2l-1-1.4C159.4,93.3,168.8,86.1,172,78.3Z"/><path class="cls-9" d="M141.9,91.6c1.7,2.3,4.8,3.4,9.1,2.8l1,1.4c-4.2.5-7.4-.6-9.1-2.8Z"/><path class="cls-10" d="M171.7,68.9l1,1.4c-1.7-2.2-4.9-3.3-9.1-2.8l-1-1.3C166.8,65.6,170,66.7,171.7,68.9Z"/><path class="cls-17" d="M180.1,65.1l1.1,1.3c-2.3-2.9-6.5-4.4-12.1-3.6l-1-1.4C173.7,60.7,177.9,62.1,180.1,65.1Z"/><path class="cls-10" d="M163.6,67.5c8.4-1.1,12.6,4.3,9.4,12.1s-12.6,15.1-21,16.2-12.6-4.3-9.4-12.1S155.2,68.6,163.6,67.5Z"/><path class="cls-10" d="M142.9,93l-1-1.4c-1.7-2.1-1.9-5.4-.3-9.3,3.2-7.8,12.6-15,21-16.1l1,1.3c-8.4,1.1-17.8,8.4-21,16.2C141,87.5,141.2,90.8,142.9,93Z"/><path class="cls-18" d="M141.7,96.5l-1-1.4c-2.2-2.9-2.5-7.2-.4-12.4,4.2-10.3,16.7-19.8,27.8-21.3l1,1.4c-11.1,1.4-23.6,11-27.8,21.3C139.2,89.2,139.5,93.6,141.7,96.5Z"/><path class="cls-9" d="M169.1,62.8c11.1-1.5,16.7,5.7,12.5,16s-16.7,19.9-27.8,21.3-16.7-5.7-12.5-16S158,64.2,169.1,62.8ZM152,95.8c8.4-1.1,17.8-8.4,21-16.2s-1-13.2-9.4-12.1-17.8,8.4-21,16.2,1,13.2,9.4,12.1"/></g><g class="cls-1"><path class="cls-13" d="M177.4,69.3l.3.5c1.9,2.4,2.2,6.1.4,10.5-3.6,8.7-14.1,16.8-23.5,18l-.3-.5c9.3-1.2,19.9-9.3,23.5-18C179.5,75.5,179.3,71.8,177.4,69.3Z"/><path class="cls-13" d="M144.4,95.2l-.3-.5c1.9,2.5,5.4,3.8,10.2,3.1l.3.5C149.9,98.9,146.3,97.7,144.4,95.2Z"/><path class="cls-13" d="M178.5,68.5l.4.4c-2.1-2.6-5.8-3.9-10.9-3.3l-.3-.4C172.7,64.5,176.5,65.8,178.5,68.5Z"/><path class="cls-13" d="M143.3,96.1l-.3-.5c-2-2.6-2.3-6.5-.4-11.2,3.8-9.3,15.1-17.9,25.1-19.2l.3.4c-10,1.4-21.2,10-25.1,19.3C141,89.5,141.3,93.4,143.3,96.1Z"/><path class="cls-3" d="M168,65.6c10-1.3,15.1,5.2,11.3,14.5S164.2,98,154.2,99.4s-15.1-5.2-11.3-14.5S158,67,168,65.6ZM154.6,98.3c9.4-1.2,19.9-9.3,23.5-18S177,65.5,167.6,66.7s-19.9,9.3-23.5,18,1.1,14.8,10.5,13.6"/></g><g class="cls-1"><polygon class="cls-13" points="164.9 85.5 164.6 85 170.2 77.3 170.6 77.7 164.9 85.5"/><path class="cls-13" d="M176.3,72.9l.4.5a2.5,2.5,0,0,0-2.1-.5l-.4-.5C175.3,72.3,176,72.5,176.3,72.9Z"/><polygon class="cls-13" points="150.8 87.3 150.5 86.9 164.6 85 164.9 85.5 150.8 87.3"/><polygon class="cls-13" points="147.3 92.2 146.9 91.7 150.5 86.9 150.8 87.3 147.3 92.2"/><polygon class="cls-13" points="156.5 79.6 156.1 79.2 159.6 74.4 159.9 74.8 156.5 79.6"/><polygon class="cls-13" points="159.9 74.8 159.6 74.4 174.2 72.4 174.6 72.9 159.9 74.8"/><path class="cls-3" d="M174.6,72.9c1.2-.2,2,.1,2.2.8s0,1.8-.9,2.9l-6.4,8.7a14.3,14.3,0,0,1-3.6,3.3,8.4,8.4,0,0,1-4,1.6l-14.6,2,3.5-4.9,14.1-1.8,5.7-7.8-14.1,1.9,3.4-4.8Z"/></g><polygon class="cls-19" points="152.5 81.4 162.2 79.8 159.5 84.8 149.6 86.2 152.5 81.4"/><g class="cls-1"><path class="cls-9" d="M117.1,35.8c3.4,5.9,8.1,11,13.3,14L128.3,51c-5.2-3-9.9-8.1-13.3-14Z"/><path class="cls-9" d="M111.7,17.4c-.1,5.9,2,12.5,5.4,18.4L115,37c-3.4-5.9-5.5-12.5-5.4-18.4S111.7,8.5,115,6.5l2.1-1.2C113.8,7.3,111.7,11.4,111.7,17.4Z"/><path class="cls-9" d="M130.4,49.8c5.2,3,9.9,3.3,13.3,1.3l-2.1,1.2c-3.4,2-8.1,1.7-13.3-1.3Z"/><path class="cls-10" d="M115,6.5l2.1-1.2c3.5-2,8.2-1.7,13.4,1.3l-2.1,1.2C123.2,4.8,118.5,4.5,115,6.5Z"/><path class="cls-20" d="M115.1,6l2.1-1.2c4.5-2.6,10.8-2.3,17.7,1.7l-2.1,1.2C125.9,3.8,119.6,3.4,115.1,6Z"/><path class="cls-10" d="M128.4,7.8c10.4,6,18.8,20.5,18.7,32.5S138.7,57,128.3,51s-18.8-20.5-18.7-32.4S118,1.8,128.4,7.8Z"/><path class="cls-10" d="M143.7,51.1l-2.1,1.2c3.4-2,5.5-6.1,5.5-12,.1-12-8.3-26.5-18.7-32.5l2.1-1.2c10.4,6,18.8,20.5,18.7,32.4C149.2,45,147.1,49.1,143.7,51.1Z"/><path class="cls-21" d="M152.4,65.4l-2.1,1.2c4.5-2.6,7.3-8.1,7.3-15.9,0-15.8-11.1-35-24.8-43l2.1-1.2c13.7,8,24.8,27.2,24.8,42.9C159.7,57.3,156.9,62.8,152.4,65.4Z"/><path class="cls-9" d="M132.8,7.7c13.7,8,24.8,27.2,24.8,43s-11.2,22.1-25,14.2S107.8,37.7,107.9,22,119.1-.2,132.8,7.7ZM128.3,51c10.4,6,18.8,1.2,18.8-10.7s-8.3-26.5-18.7-32.5-18.8-1.2-18.8,10.8S117.9,45,128.3,51"/></g><g class="cls-1"><path class="cls-13" d="M117,11.5l.7-.4c-3.7,2.2-6.1,6.8-6.1,13.4,0,13.3,9.4,29.6,21,36.3l-.7.4c-11.6-6.7-21-23-21-36.3C110.9,18.3,113.3,13.7,117,11.5Z"/><path class="cls-13" d="M147.5,62.3l-.7.4c-3.8,2.2-9.1,1.9-14.9-1.5l.7-.4C138.4,64.2,143.7,64.5,147.5,62.3Z"/><path class="cls-13" d="M116,9.8l.7-.5c4.1-2.3,9.8-2,16,1.6l-.7.4C125.8,7.7,120.1,7.4,116,9.8Z"/><path class="cls-13" d="M148.5,64l-.7.4c4-2.4,6.5-7.3,6.5-14.4.1-14.2-9.9-31.6-22.3-38.7l.7-.4C145.1,18,155.1,35.4,155,49.6,155,56.7,152.5,61.6,148.5,64Z"/><path class="cls-3" d="M132,11.3c12.4,7.1,22.4,24.5,22.3,38.7s-10.1,20-22.5,12.8-22.3-24.5-22.3-38.7S119.6,4.2,132,11.3Zm-.1,49.9c11.5,6.7,21,1.3,21-12S143.6,19.6,132,12.9s-21.1-1.3-21.1,12,9.4,29.6,21,36.3"/></g><g class="cls-1"><polygon class="cls-13" points="118.6 40.3 119.3 39.9 123.3 42.3 122.7 42.7 118.6 40.3"/><polygon class="cls-13" points="130 52.4 130.7 52 130.7 56 130 56.4 130 52.4"/><polygon class="cls-3" points="136.2 55.6 136.9 55.2 136.9 59.6 136.2 60 136.2 55.6"/><polygon class="cls-13" points="128.4 46 129.1 45.6 133 47.8 132.3 48.2 128.4 46"/><polygon class="cls-3" points="128.4 37.8 129.1 37.4 129.1 45.6 128.4 46 128.4 37.8"/><path class="cls-13" d="M136.6,48.6l-.7.4c0,.1-.1.1-.2.1s-1.9,0-3.4-.9l.7-.4c1.5.9,2.6,1.2,3.4.9Z"/><polygon class="cls-13" points="128.5 32.6 129.2 32.2 132.5 34.1 131.8 34.5 128.5 32.6"/><polygon class="cls-13" points="128.5 25.6 129.2 25.2 129.2 32.2 128.5 32.6 128.5 25.6"/><path class="cls-13" d="M131.8,34.5l.7-.4.5.3c1.3.7,2.3,1,2.9.8l-.7.4c-.6.2-1.6-.1-2.9-.8Z"/><polygon class="cls-3" points="138 40.4 138.7 39.9 138.7 40.2 138 40.6 138 40.4"/><path class="cls-3" d="M136.2,35.1l-.7.4h-.3l.7-.4Z"/><polygon class="cls-13" points="118.7 14.5 119.4 14.1 126.9 18.5 126.2 18.9 118.7 14.5"/><path class="cls-13" d="M141.5,55.1l-.7.4c1.3-.8,2-2.4,2-4.8a14.2,14.2,0,0,0-1.1-5.5l.7-.4a14.2,14.2,0,0,1,1.1,5.5C143.5,52.7,142.8,54.3,141.5,55.1Z"/><path class="cls-13" d="M138,40.6l.7-.4a13.2,13.2,0,0,1,3.7,4.6l-.7.4A14.2,14.2,0,0,0,138,40.6Z"/><polygon class="cls-13" points="130.1 21.1 130.8 20.7 131.9 21.4 131.2 21.8 130.1 21.1"/><path class="cls-13" d="M131.2,21.8l.7-.4,1.2.7-.7.4Z"/><polygon class="cls-13" points="126.2 14.8 126.9 14.4 130.8 16.7 130.1 17.1 126.2 14.8"/><polygon class="cls-13" points="130.1 17.1 130.8 16.7 130.8 20.7 130.1 21.1 130.1 17.1"/><path class="cls-13" d="M141.2,39.9l-.7.4.5-.3c.8-.8,1.2-2.1,1.2-4a12.4,12.4,0,0,0-2.6-7.5,25.7,25.7,0,0,0-3.3-3.3l.7-.4a25.7,25.7,0,0,1,3.3,3.3,12.4,12.4,0,0,1,2.6,7.5c0,1.9-.4,3.2-1.2,4Z"/><polygon class="cls-13" points="136.3 20.7 137 20.3 137 24.8 136.3 25.2 136.3 20.7"/><polygon class="cls-13" points="132.4 18.4 133.1 18 137 20.3 136.3 20.7 132.4 18.4"/><path class="cls-3" d="M141.7,45.2a14.2,14.2,0,0,1,1.1,5.5q0,4.2-2.7,5.1a6.6,6.6,0,0,1-3.9-.2V60l-3.9-2.3v-4L130,52.4v4l-3.9-2.3v-4l-7.5-4.3V40.3l4.1,2.4V22.3L118.6,20V14.5l7.5,4.4V14.8l3.9,2.3v4l1.1.7,1.2.7V18.4l3.9,2.3v4.5a25.7,25.7,0,0,1,3.3,3.3,12.4,12.4,0,0,1,2.6,7.5c0,1.9-.4,3.2-1.2,4a2.9,2.9,0,0,1-3,.4v.2A14.2,14.2,0,0,1,141.7,45.2Zm-5.5,3.6a3.4,3.4,0,0,0,.6-2.2,7.5,7.5,0,0,0-.5-2.6,10,10,0,0,0-4-3.9l-.3-.2-3.6-2.1V46l3.9,2.2c1.5.9,2.6,1.2,3.4.9l.5-.3m-7.7-23.2v7l3.3,1.9.5.3c1.3.7,2.3,1,2.9.8s1.1-.8,1.1-2.1a4.7,4.7,0,0,0-1.2-3.2,10.9,10.9,0,0,0-2.7-2.4l-.9-.5-3-1.8"/></g><path class="cls-22" d="M74.3,155.3V0H194.2V155.4l-3.1,4.4-45.9,27.1a19.7,19.7,0,0,1-21,0L77.5,159.8Z"/></g></g></g></svg>